<svg width="240" height="69" viewBox="0 0 240 69" fill="none" xmlns="http://www.w3.org/2000/svg">
<path d="M55.9869 1.09091V68H43.7681L14.6587 25.8878H14.1687V68H0.0223721V1.09091H12.4371L41.3178 43.1705H41.9059V1.09091H55.9869ZM90.2827 68.9801C85.1207 68.9801 80.6776 67.9347 76.9531 65.8438C73.2505 63.7311 70.3973 60.7472 68.3935 56.892C66.3897 53.0152 65.3878 48.4304 65.3878 43.1378C65.3878 37.9759 66.3897 33.4455 68.3935 29.5469C70.3973 25.6482 73.2178 22.6098 76.8551 20.4318C80.5142 18.2538 84.8049 17.1648 89.7273 17.1648C93.0379 17.1648 96.1198 17.6984 98.973 18.7656C101.848 19.8111 104.353 21.3902 106.487 23.5028C108.643 25.6155 110.321 28.2727 111.518 31.4744C112.716 34.6544 113.315 38.3788 113.315 42.6477V46.4702H70.9418V37.8452H100.214C100.214 35.8414 99.7789 34.0663 98.9077 32.5199C98.0365 30.9735 96.8277 29.7647 95.2812 28.8935C93.7566 28.0005 91.9815 27.554 89.956 27.554C87.8433 27.554 85.9702 28.044 84.3366 29.0241C82.7249 29.9825 81.4616 31.2784 80.5469 32.9119C79.6321 34.5237 79.1638 36.3205 79.142 38.3026V46.5028C79.142 48.9858 79.5994 51.1312 80.5142 52.9389C81.4508 54.7467 82.7685 56.1406 84.4673 57.1207C86.1662 58.1009 88.1809 58.5909 90.5114 58.5909C92.0578 58.5909 93.4735 58.3731 94.7585 57.9375C96.0436 57.5019 97.1435 56.8485 98.0582 55.9773C98.973 55.1061 99.67 54.0388 100.149 52.7756L113.021 53.625C112.368 56.7178 111.028 59.4186 109.003 61.7273C106.999 64.0142 104.407 65.8002 101.227 67.0852C98.0691 68.3485 94.4209 68.9801 90.2827 68.9801ZM145.267 68.9801C140.105 68.9801 135.662 67.9347 131.938 65.8438C128.235 63.7311 125.382 60.7472 123.378 56.892C121.374 53.0152 120.372 48.4304 120.372 43.1378C120.372 37.9759 121.374 33.4455 123.378 29.5469C125.382 25.6482 128.202 22.6098 131.839 20.4318C135.499 18.2538 139.789 17.1648 144.712 17.1648C148.022 17.1648 151.104 17.6984 153.957 18.7656C156.832 19.8111 159.337 21.3902 161.472 23.5028C163.628 25.6155 165.305 28.2727 166.503 31.4744C167.701 34.6544 168.3 38.3788 168.3 42.6477V46.4702H125.926V37.8452H155.199C155.199 35.8414 154.763 34.0663 153.892 32.5199C153.021 30.9735 151.812 29.7647 150.266 28.8935C148.741 28.0005 146.966 27.554 144.94 27.554C142.828 27.554 140.955 28.044 139.321 29.0241C137.709 29.9825 136.446 31.2784 135.531 32.9119C134.616 34.5237 134.148 36.3205 134.126 38.3026V46.5028C134.126 48.9858 134.584 51.1312 135.499 52.9389C136.435 54.7467 137.753 56.1406 139.452 57.1207C141.151 58.1009 143.165 58.5909 145.496 58.5909C147.042 58.5909 148.458 58.3731 149.743 57.9375C151.028 57.5019 152.128 56.8485 153.043 55.9773C153.957 55.1061 154.654 54.0388 155.134 52.7756L168.006 53.625C167.352 56.7178 166.013 59.4186 163.987 61.7273C161.983 64.0142 159.392 65.8002 156.212 67.0852C153.054 68.3485 149.405 68.9801 145.267 68.9801ZM239.129 34.5455C239.129 41.8419 237.746 48.0492 234.98 53.1676C232.236 58.286 228.49 62.1955 223.741 64.8963C219.015 67.5753 213.701 68.9148 207.798 68.9148C201.852 68.9148 196.516 67.5644 191.79 64.8636C187.063 62.1629 183.328 58.2533 180.584 53.1349C177.839 48.0166 176.467 41.8201 176.467 34.5455C176.467 27.2491 177.839 21.0417 180.584 15.9233C183.328 10.8049 187.063 6.90625 191.79 4.22727C196.516 1.52651 201.852 0.176134 207.798 0.176134C213.701 0.176134 219.015 1.52651 223.741 4.22727C228.49 6.90625 232.236 10.8049 234.98 15.9233C237.746 21.0417 239.129 27.2491 239.129 34.5455ZM224.787 34.5455C224.787 29.8191 224.079 25.8333 222.663 22.5881C221.269 19.3428 219.298 16.8816 216.75 15.2045C214.202 13.5275 211.218 12.6889 207.798 12.6889C204.379 12.6889 201.395 13.5275 198.847 15.2045C196.298 16.8816 194.316 19.3428 192.901 22.5881C191.507 25.8333 190.81 29.8191 190.81 34.5455C190.81 39.2718 191.507 43.2576 192.901 46.5028C194.316 49.7481 196.298 52.2093 198.847 53.8864C201.395 55.5634 204.379 56.402 207.798 56.402C211.218 56.402 214.202 55.5634 216.75 53.8864C219.298 52.2093 221.269 49.7481 222.663 46.5028C224.079 43.2576 224.787 39.2718 224.787 34.5455Z" fill="#6DCF0A"/>
</svg>
