<svg width="68" height="64" viewBox="0 0 68 64" fill="none" xmlns="http://www.w3.org/2000/svg">
<g clip-path="url(#clip0_264_27)">
<path d="M67.9385 11.1961V3.64453L54.912 10.2378C54.4568 9.77506 53.9829 9.32868 53.4901 8.90483C47.3997 3.58105 39.6055 0.726686 27.6314 0.0734994C18.265 -0.432259 12.9701 1.59692 8.33702 3.64657V33.8713L0 38.0996V45.6614L8.33702 41.4229V46.7466L0 50.9647V58.5163L8.33702 54.288V63.9998H23.5098V15.4715C24.7271 15.1459 25.9548 14.8204 29.1472 14.8204C35.8285 14.8204 47.312 21.8211 47.2097 37.0041C47.2097 44.6499 45.0257 50.506 41.8855 54.675L53.3043 63.9936L54.6635 62.4334C58.5909 57.7976 63.3012 48.5342 63.3012 36.4615C63.3213 33.2229 63.0797 29.9878 62.5788 26.7866L67.9468 24.0633V16.5096L60.8959 20.0807C60.3747 18.5861 59.7331 17.1346 58.9772 15.7397L67.9385 11.1961Z" fill="url(#paint0_linear_264_27)"/>
</g>
<defs>
<linearGradient id="paint0_linear_264_27" x1="39.3073" y1="20.5369" x2="12.3291" y2="72.4735" gradientUnits="userSpaceOnUse">
<stop stop-color="#35CBE6"/>
<stop offset="1" stop-color="#353CE6"/>
</linearGradient>
<clipPath id="clip0_264_27">
<rect width="67.9385" height="64" fill="white"/>
</clipPath>
</defs>
</svg>
