<svg width="200" height="52" viewBox="0 0 200 52" fill="none" xmlns="http://www.w3.org/2000/svg">
<path d="M31.6698 24.1648C31.6169 18.4242 36.4908 15.6313 36.7137 15.5013C33.9534 11.5774 29.675 11.0413 28.1715 10.9986C24.5781 10.6299 21.0926 13.095 19.2621 13.095C17.3951 13.095 14.5763 11.0342 11.5383 11.0947C7.62895 11.1535 3.97167 13.3604 1.96583 16.7873C-2.17374 23.7747 0.913583 34.043 4.8796 39.691C6.86352 42.4571 9.18175 45.5456 12.2161 45.437C15.1847 45.3176 16.2935 43.5917 19.8759 43.5917C23.4254 43.5917 24.4667 45.437 27.5613 45.3675C30.7473 45.3176 32.7531 42.5889 34.6676 39.7979C36.9603 36.6274 37.881 33.5051 37.9175 33.3448C37.8426 33.3199 31.7301 31.0453 31.6698 24.1648Z" fill="black"/>
<path d="M25.824 7.2831C27.4207 5.33631 28.5131 2.68775 28.2098 0C25.8989 0.0997441 23.0089 1.5585 21.3447 3.46254C19.8723 5.14038 18.557 7.89047 18.8967 10.4767C21.4927 10.6655 24.158 9.19961 25.824 7.2831Z" fill="black"/>
<path d="M74.6378 45.0345H70.4891L68.2165 38.072H60.3174L58.1526 45.0345H54.1135L61.9396 21.3311H66.7733L74.6378 45.0345ZM67.5315 35.151L65.4763 28.9615C65.2589 28.3292 64.8515 26.8401 64.2505 24.4961H64.1774C63.9381 25.5043 63.5527 26.9933 63.0229 28.9615L61.0043 35.151H67.5315Z" fill="black"/>
<path d="M94.7634 36.2799C94.7634 39.1867 93.9578 41.4844 92.3466 43.1712C90.9034 44.6727 89.1113 45.4225 86.9721 45.4225C84.663 45.4225 83.0042 44.6139 81.994 42.9966H81.9209V52.0003H78.0262V33.5708C78.0262 31.7433 77.9768 29.8678 77.8818 27.9441H81.3071L81.5245 30.6533H81.5976C82.8964 28.6121 84.8676 27.5933 87.5128 27.5933C89.5808 27.5933 91.3071 28.3894 92.6882 29.9836C94.0729 31.5795 94.7634 33.6776 94.7634 36.2799ZM90.7956 36.4188C90.7956 34.7552 90.412 33.3838 89.641 32.3044C88.7989 31.1787 87.6681 30.6159 86.2505 30.6159C85.2896 30.6159 84.4163 30.9293 83.6363 31.5474C82.8544 32.1708 82.3429 32.9848 82.1036 33.9929C81.983 34.4631 81.9227 34.8479 81.9227 35.1507V38.0005C81.9227 39.2437 82.3137 40.2928 83.0956 41.1496C83.8774 42.0063 84.8931 42.4338 86.1427 42.4338C87.6096 42.4338 88.7514 41.8816 89.568 40.7809C90.3864 39.6783 90.7956 38.2249 90.7956 36.4188Z" fill="black"/>
<path d="M114.928 36.2799C114.928 39.1867 114.122 41.4844 112.509 43.1712C111.068 44.6727 109.276 45.4225 107.136 45.4225C104.827 45.4225 103.169 44.6139 102.16 42.9966H102.087V52.0003H98.1924V33.5708C98.1924 31.7433 98.1431 29.8678 98.0481 27.9441H101.473L101.691 30.6533H101.764C103.061 28.6121 105.032 27.5933 107.679 27.5933C109.745 27.5933 111.472 28.3894 112.856 29.9836C114.236 31.5795 114.928 33.6776 114.928 36.2799ZM110.96 36.4188C110.96 34.7552 110.575 33.3838 109.804 32.3044C108.961 31.1787 107.834 30.6159 106.415 30.6159C105.452 30.6159 104.581 30.9293 103.799 31.5474C103.017 32.1708 102.507 32.9848 102.268 33.9929C102.149 34.4631 102.087 34.8479 102.087 35.1507V38.0005C102.087 39.2437 102.478 40.2928 103.256 41.1496C104.038 42.0045 105.054 42.4338 106.307 42.4338C107.774 42.4338 108.916 41.8816 109.732 40.7809C110.551 39.6783 110.96 38.2249 110.96 36.4188Z" fill="black"/>
<path d="M137.471 38.3923C137.471 40.4086 136.753 42.049 135.312 43.3154C133.728 44.6994 131.523 45.3905 128.69 45.3905C126.074 45.3905 123.976 44.8989 122.389 43.9139L123.291 40.7488C125.001 41.7569 126.877 42.2628 128.922 42.2628C130.389 42.2628 131.53 41.9386 132.351 41.2938C133.167 40.649 133.575 39.7834 133.575 38.704C133.575 37.7422 133.238 36.9318 132.564 36.2746C131.894 35.6173 130.774 35.0064 129.21 34.4418C124.954 32.8939 122.827 30.6265 122.827 27.6449C122.827 25.6963 123.573 24.0986 125.065 22.8554C126.552 21.6104 128.536 20.9888 131.017 20.9888C133.229 20.9888 135.067 21.3646 136.534 22.1145L135.56 25.2101C134.19 24.4834 132.641 24.12 130.907 24.12C129.537 24.12 128.467 24.4495 127.699 25.105C127.051 25.691 126.726 26.4052 126.726 27.2513C126.726 28.1882 127.097 28.963 127.842 29.5721C128.49 30.1349 129.669 30.7441 131.379 31.4013C133.47 32.2225 135.007 33.1825 135.995 34.2832C136.98 35.3804 137.471 36.7537 137.471 38.3923Z" fill="black"/>
<path d="M150.347 30.7946H146.054V39.0929C146.054 41.2036 146.81 42.258 148.326 42.258C149.022 42.258 149.599 42.1993 150.056 42.0817L150.164 44.9654C149.397 45.245 148.386 45.3857 147.135 45.3857C145.597 45.3857 144.395 44.928 143.527 44.0142C142.663 43.0987 142.228 41.5634 142.228 39.4064V30.791H139.671V27.9412H142.228V24.8117L146.054 23.686V27.9412H150.347V30.7946Z" fill="black"/>
<path d="M169.718 36.3583C169.718 38.9855 168.947 41.1425 167.408 42.8292C165.795 44.5658 163.654 45.4315 160.985 45.4315C158.413 45.4315 156.365 44.5997 154.838 42.9361C153.311 41.2725 152.547 39.1725 152.547 36.6415C152.547 33.993 153.333 31.8235 154.909 30.1368C156.482 28.4483 158.605 27.604 161.274 27.604C163.846 27.604 165.916 28.4358 167.478 30.1012C168.972 31.7167 169.718 33.8024 169.718 36.3583ZM165.677 36.4812C165.677 34.9049 165.331 33.553 164.632 32.4256C163.815 31.0612 162.648 30.3808 161.135 30.3808C159.57 30.3808 158.38 31.063 157.564 32.4256C156.864 33.5548 156.519 34.9281 156.519 36.5525C156.519 38.1288 156.864 39.4807 157.564 40.6064C158.406 41.9707 159.582 42.6511 161.101 42.6511C162.588 42.6511 163.755 41.9565 164.597 40.5707C165.315 39.4219 165.677 38.0558 165.677 36.4812Z" fill="black"/>
<path d="M182.376 31.2838C181.991 31.2143 181.58 31.1787 181.149 31.1787C179.778 31.1787 178.719 31.6828 177.974 32.6927C177.325 33.5832 177 34.7089 177 36.0679V45.036H173.107L173.143 33.3268C173.143 31.3568 173.094 29.5632 172.997 27.9459H176.39L176.532 31.2161H176.64C177.051 30.0922 177.7 29.1874 178.587 28.5088C179.455 27.8978 180.392 27.5933 181.403 27.5933C181.762 27.5933 182.088 27.6182 182.376 27.6627V31.2838Z" fill="black"/>
<path d="M199.794 35.6813C199.794 36.3617 199.749 36.9352 199.652 37.4036H187.968C188.013 39.0922 188.578 40.3835 189.663 41.2741C190.648 42.0702 191.921 42.4692 193.485 42.4692C195.215 42.4692 196.793 42.2003 198.212 41.6606L198.823 44.2967C197.164 45.002 195.205 45.3529 192.946 45.3529C190.227 45.3529 188.094 44.5727 186.541 43.0142C184.992 41.4557 184.215 39.3629 184.215 36.7375C184.215 34.1602 184.937 32.0139 186.382 30.3022C187.895 28.4748 189.939 27.561 192.511 27.561C195.037 27.561 196.95 28.4748 198.249 30.3022C199.277 31.7538 199.794 33.5492 199.794 35.6813ZM196.08 34.6963C196.106 33.5706 195.852 32.5981 195.324 31.777C194.65 30.7208 193.614 30.1936 192.22 30.1936C190.947 30.1936 189.911 30.7083 189.12 31.7414C188.472 32.5625 188.086 33.5475 187.968 34.6945H196.08V34.6963Z" fill="black"/>
<path d="M66.2436 6.74265C66.2436 8.83905 65.5987 10.4171 64.3108 11.4769C63.1179 12.4548 61.4226 12.9446 59.2268 12.9446C58.138 12.9446 57.2063 12.8983 56.4263 12.8057V1.35112C57.4438 1.19082 58.5399 1.10889 59.7237 1.10889C61.8154 1.10889 63.3919 1.55239 64.4551 2.4394C65.6462 3.44219 66.2436 4.87601 66.2436 6.74265ZM64.225 6.7943C64.225 5.43529 63.8559 4.39332 63.1179 3.66661C62.3799 2.94168 61.302 2.57833 59.8826 2.57833C59.2798 2.57833 58.7664 2.61752 58.3408 2.69945V11.4075C58.5764 11.4431 59.0076 11.4591 59.6342 11.4591C61.0993 11.4591 62.2301 11.0619 63.0266 10.2675C63.8231 9.47314 64.225 8.3154 64.225 6.7943Z" fill="black"/>
<path d="M76.9454 8.57702C76.9454 9.86835 76.5672 10.9264 75.8109 11.7564C75.0181 12.6095 73.9677 13.0352 72.656 13.0352C71.3919 13.0352 70.3853 12.6273 69.6345 11.808C68.8855 10.9905 68.511 9.95919 68.511 8.71595C68.511 7.41572 68.8964 6.34881 69.671 5.52058C70.4456 4.69235 71.4869 4.27734 72.7985 4.27734C74.0627 4.27734 75.0784 4.68523 75.8475 5.50277C76.5782 6.29716 76.9454 7.3231 76.9454 8.57702ZM74.9596 8.63758C74.9596 7.86279 74.7879 7.19842 74.4463 6.64448C74.0444 5.97477 73.4726 5.63992 72.7291 5.63992C71.96 5.63992 71.3754 5.97477 70.9735 6.64448C70.6301 7.19842 70.4602 7.87347 70.4602 8.67143C70.4602 9.44622 70.6319 10.1106 70.9735 10.6645C71.3882 11.3342 71.9655 11.6691 72.7108 11.6691C73.4416 11.6691 74.0152 11.3289 74.428 10.6467C74.7824 10.0821 74.9596 9.41238 74.9596 8.63758Z" fill="black"/>
<path d="M91.2962 4.44873L88.6017 12.845H86.8479L85.7318 9.19904C85.4486 8.28888 85.2184 7.38406 85.0394 6.48636H85.0047C84.8384 7.40899 84.6083 8.31203 84.3123 9.19904L83.1267 12.845H81.3529L78.8191 4.44873H80.7866L81.7603 8.44028C81.9959 9.38428 82.1896 10.2838 82.3448 11.1351H82.3795C82.522 10.4334 82.7577 9.53924 83.0902 8.45809L84.3123 4.45051H85.8724L87.0434 8.37259C87.3266 9.32907 87.5567 10.2499 87.7339 11.1369H87.7869C87.9166 10.2731 88.1121 9.35222 88.3715 8.37259L89.4164 4.45051H91.2962V4.44873Z" fill="black"/>
<path d="M101.225 12.8393H99.3102V8.03016C99.3102 6.54825 98.7329 5.80729 97.5747 5.80729C97.0065 5.80729 96.548 6.01034 96.1918 6.41823C95.8392 6.82611 95.6602 7.30702 95.6602 7.85739V12.8375H93.7457V6.84214C93.7457 6.10474 93.7219 5.30501 93.6763 4.43937H95.3588L95.4483 5.75208H95.5013C95.7241 5.3442 96.0566 5.00756 96.4932 4.73861C97.012 4.42512 97.5929 4.2666 98.2287 4.2666C99.0325 4.2666 99.7011 4.51952 100.233 5.02715C100.894 5.64877 101.225 6.57675 101.225 7.8093V12.8393Z" fill="black"/>
<path d="M106.502 12.8441H104.589V0.595215H106.502V12.8441Z" fill="black"/>
<path d="M117.776 8.57702C117.776 9.86835 117.398 10.9264 116.642 11.7564C115.849 12.6095 114.796 13.0352 113.487 13.0352C112.221 13.0352 111.214 12.6273 110.465 11.808C109.716 10.9905 109.342 9.95919 109.342 8.71595C109.342 7.41572 109.727 6.34881 110.502 5.52058C111.276 4.69235 112.317 4.27734 113.627 4.27734C114.893 4.27734 115.907 4.68523 116.678 5.50277C117.409 6.29716 117.776 7.3231 117.776 8.57702ZM115.788 8.63758C115.788 7.86279 115.617 7.19842 115.275 6.64448C114.875 5.97477 114.301 5.63992 113.56 5.63992C112.789 5.63992 112.204 5.97477 111.804 6.64448C111.461 7.19842 111.291 7.87347 111.291 8.67143C111.291 9.44622 111.462 10.1106 111.804 10.6645C112.219 11.3342 112.796 11.6691 113.541 11.6691C114.272 11.6691 114.844 11.3289 115.257 10.6467C115.613 10.0821 115.788 9.41238 115.788 8.63758Z" fill="black"/>
<path d="M127.04 12.8446H125.321L125.179 11.8775H125.126C124.537 12.6487 123.699 13.0352 122.61 13.0352C121.797 13.0352 121.14 12.7805 120.645 12.2747C120.195 11.8151 119.97 11.2434 119.97 10.5648C119.97 9.53884 120.409 8.75692 121.291 8.21545C122.172 7.67398 123.41 7.40859 125.005 7.42106V7.26432C125.005 6.15823 124.41 5.60608 123.217 5.60608C122.367 5.60608 121.618 5.81447 120.972 6.2277L120.582 5.00227C121.383 4.51958 122.371 4.27734 123.536 4.27734C125.787 4.27734 126.916 5.43509 126.916 7.75057V10.8426C126.916 11.6816 126.958 12.3495 127.04 12.8446ZM125.053 9.95919V8.6643C122.941 8.62868 121.885 9.1933 121.885 10.3564C121.885 10.7945 122.006 11.1223 122.252 11.3414C122.499 11.5604 122.813 11.6691 123.187 11.6691C123.608 11.6691 124 11.5391 124.358 11.2808C124.718 11.0208 124.939 10.6912 125.022 10.2869C125.042 10.1961 125.053 10.0857 125.053 9.95919Z" fill="black"/>
<path d="M137.921 12.8441H136.222L136.133 11.4958H136.08C135.537 12.5218 134.613 13.0347 133.314 13.0347C132.276 13.0347 131.412 12.6375 130.727 11.8431C130.042 11.0488 129.7 10.0175 129.7 8.75108C129.7 7.39206 130.071 6.29131 130.817 5.45061C131.538 4.66691 132.422 4.27506 133.475 4.27506C134.631 4.27506 135.44 4.65444 135.901 5.41499H135.937V0.595215H137.853V10.5821C137.853 11.3996 137.875 12.1531 137.921 12.8441ZM135.937 9.30323V7.90325C135.937 7.66102 135.919 7.46509 135.884 7.31547C135.776 6.86663 135.544 6.48902 135.192 6.18445C134.836 5.87987 134.406 5.72669 133.911 5.72669C133.197 5.72669 132.638 6.00277 132.227 6.55671C131.82 7.11064 131.613 7.81776 131.613 8.68161C131.613 9.51162 131.809 10.1849 132.201 10.7032C132.616 11.2554 133.175 11.5314 133.875 11.5314C134.503 11.5314 135.006 11.3017 135.387 10.8404C135.756 10.4147 135.937 9.90169 135.937 9.30323Z" fill="black"/>
<path d="M154.293 8.57702C154.293 9.86835 153.914 10.9264 153.158 11.7564C152.365 12.6095 151.317 13.0352 150.003 13.0352C148.741 13.0352 147.734 12.6273 146.982 11.808C146.233 10.9905 145.858 9.95919 145.858 8.71595C145.858 7.41572 146.244 6.34881 147.018 5.52058C147.793 4.69235 148.834 4.27734 150.148 4.27734C151.41 4.27734 152.427 4.68523 153.195 5.50277C153.925 6.29716 154.293 7.3231 154.293 8.57702ZM152.309 8.63758C152.309 7.86279 152.137 7.19842 151.795 6.64448C151.392 5.97477 150.822 5.63992 150.076 5.63992C149.309 5.63992 148.724 5.97477 148.321 6.64448C147.977 7.19842 147.807 7.87347 147.807 8.67143C147.807 9.44622 147.979 10.1106 148.321 10.6645C148.735 11.3342 149.313 11.6691 150.058 11.6691C150.789 11.6691 151.364 11.3289 151.777 10.6467C152.13 10.0821 152.309 9.41238 152.309 8.63758Z" fill="black"/>
<path d="M164.585 12.8393H162.672V8.03016C162.672 6.54825 162.095 5.80729 160.935 5.80729C160.367 5.80729 159.908 6.01034 159.554 6.41823C159.2 6.82611 159.022 7.30702 159.022 7.85739V12.8375H157.106V6.84214C157.106 6.10474 157.084 5.30501 157.039 4.43937H158.719L158.809 5.75208H158.862C159.086 5.3442 159.419 5.00756 159.854 4.73861C160.374 4.42512 160.953 4.2666 161.591 4.2666C162.393 4.2666 163.062 4.51952 163.593 5.02715C164.256 5.64877 164.585 6.57675 164.585 7.8093V12.8393Z" fill="black"/>
<path d="M177.472 5.85059H175.364V9.92941C175.364 10.966 175.739 11.4844 176.48 11.4844C176.824 11.4844 177.109 11.4559 177.333 11.3971L177.383 12.8131C177.005 12.952 176.508 13.0215 175.896 13.0215C175.139 13.0215 174.551 12.7971 174.126 12.3482C173.698 11.8994 173.486 11.1442 173.486 10.0844V5.85059H172.228V4.45239H173.486V2.91348L175.362 2.36133V4.45061H177.47V5.85059H177.472Z" fill="black"/>
<path d="M187.606 12.8441H185.69V8.07068C185.69 6.56561 185.112 5.81219 183.956 5.81219C183.068 5.81219 182.462 6.24857 182.129 7.12133C182.073 7.30479 182.04 7.52921 182.04 7.79282V12.8424H180.127V0.595215H182.04V5.65545H182.076C182.679 4.73459 183.543 4.27506 184.663 4.27506C185.456 4.27506 186.112 4.52798 186.632 5.03561C187.281 5.66791 187.606 6.60836 187.606 7.8516V12.8441Z" fill="black"/>
<path d="M198.059 8.24384C198.059 8.5787 198.033 8.86012 197.988 9.08988H192.246C192.272 9.9199 192.546 10.5522 193.077 10.9904C193.563 11.3822 194.19 11.5781 194.957 11.5781C195.807 11.5781 196.581 11.4463 197.279 11.1809L197.579 12.4776C196.762 12.8232 195.801 12.9959 194.689 12.9959C193.355 12.9959 192.305 12.613 191.545 11.8471C190.781 11.0812 190.403 10.0535 190.403 8.76394C190.403 7.49754 190.755 6.4431 191.466 5.6024C192.208 4.70471 193.211 4.25586 194.477 4.25586C195.715 4.25586 196.656 4.70471 197.292 5.6024C197.805 6.31486 198.059 7.19653 198.059 8.24384ZM196.232 7.76115C196.247 7.20721 196.121 6.72987 195.861 6.32733C195.529 5.80902 195.023 5.54897 194.338 5.54897C193.713 5.54897 193.203 5.80189 192.814 6.30952C192.496 6.71384 192.308 7.19653 192.246 7.76115H196.232Z" fill="black"/>
</svg>
