<svg width="180" height="52" viewBox="0 0 180 52" fill="none" xmlns="http://www.w3.org/2000/svg">
<g clip-path="url(#clip0_3332_1099)">
<rect width="180" height="52" rx="6" fill="black"/>
<path d="M179 46.0031C179 48.7743 176.709 51.0189 173.874 51.0189H6.13243C3.2995 51.0189 1 48.7743 1 46.0031V6.00357C1 3.23374 3.2995 0.981201 6.13243 0.981201H173.873C176.709 0.981201 178.999 3.23374 178.999 6.00357L179 46.0031Z" fill="black"/>
<path d="M173.333 1.04163C176.42 1.04163 178.932 3.4905 178.932 6.5V45.5C178.932 48.5095 176.42 50.9584 173.333 50.9584H6.66667C3.58 50.9584 1.06833 48.5095 1.06833 45.5V6.5C1.06833 3.4905 3.58 1.04163 6.66667 1.04163H173.333ZM173.333 2.74817e-06H6.66667C3.00167 2.74817e-06 0 2.92663 0 6.5V45.5C0 49.0734 3.00167 52 6.66667 52H173.333C176.998 52 180 49.0734 180 45.5V6.5C180 2.92663 176.998 2.74817e-06 173.333 2.74817e-06Z" fill="#A6A6A6"/>
<path d="M40.1707 25.7191C40.132 21.5292 43.6894 19.4908 43.852 19.3959C41.8374 16.532 38.7147 16.1407 37.6174 16.1095C34.9947 15.8404 32.4507 17.6396 31.1147 17.6396C29.752 17.6396 27.6947 16.1355 25.4774 16.1797C22.624 16.2226 19.9547 17.8333 18.4907 20.3345C15.4694 25.4344 17.7227 32.9289 20.6174 37.0512C22.0654 39.0701 23.7574 41.3243 25.972 41.245C28.1387 41.1579 28.948 39.8982 31.5627 39.8982C34.1534 39.8982 34.9134 41.245 37.172 41.1943C39.4974 41.1579 40.9614 39.1663 42.3587 37.1292C44.032 34.8152 44.704 32.5363 44.7307 32.4193C44.676 32.4011 40.2147 30.741 40.1707 25.7191Z" fill="white"/>
<path d="M35.904 13.3977C37.0694 11.9768 37.8667 10.0437 37.6454 8.08203C35.9587 8.15483 33.8494 9.21953 32.6347 10.6092C31.56 11.8338 30.6 13.841 30.848 15.7286C32.7427 15.8664 34.688 14.7965 35.904 13.3977Z" fill="white"/>
<path d="M71.5267 40.9552H68.4987L66.84 35.8735H61.0747L59.4947 40.9552H56.5467L62.2587 23.6548H65.7867L71.5267 40.9552ZM66.34 33.7415L64.84 29.224C64.6814 28.7625 64.384 27.6757 63.9454 25.9649H63.892C63.7174 26.7007 63.436 27.7875 63.0494 29.224L61.576 33.7415H66.34V33.7415Z" fill="white"/>
<path d="M86.216 34.5645C86.216 36.6861 85.628 38.3631 84.452 39.5942C83.3987 40.6901 82.0907 41.2374 80.5293 41.2374C78.844 41.2374 77.6333 40.6472 76.896 39.4668H76.8427V46.0383H74V32.5872C74 31.2534 73.964 29.8845 73.8947 28.4805H76.3947L76.5533 30.4578H76.6067C77.5547 28.968 78.9933 28.2244 80.924 28.2244C82.4333 28.2244 83.6933 28.8055 84.7013 29.969C85.712 31.1338 86.216 32.6652 86.216 34.5645ZM83.32 34.6659C83.32 33.4517 83.04 32.4507 82.4773 31.6629C81.8627 30.8413 81.0373 30.4305 80.0027 30.4305C79.3013 30.4305 78.664 30.6593 78.0947 31.1104C77.524 31.5654 77.1506 32.1595 76.976 32.8953C76.888 33.2385 76.844 33.5193 76.844 33.7403V35.8203C76.844 36.7277 77.1293 37.4934 77.7 38.1187C78.2707 38.744 79.012 39.056 79.924 39.056C80.9947 39.056 81.828 38.653 82.424 37.8496C83.0213 37.0449 83.32 35.9841 83.32 34.6659Z" fill="white"/>
<path d="M100.932 34.5645C100.932 36.6861 100.344 38.3631 99.1667 39.5942C98.1147 40.6901 96.8067 41.2374 95.2454 41.2374C93.5601 41.2374 92.3494 40.6472 91.6134 39.4668H91.5601V46.0383H88.7174V32.5872C88.7174 31.2534 88.6814 29.8845 88.6121 28.4805H91.1121L91.2707 30.4578H91.3241C92.2707 28.968 93.7094 28.2244 95.6414 28.2244C97.1494 28.2244 98.4094 28.8055 99.4201 29.969C100.427 31.1338 100.932 32.6652 100.932 34.5645ZM98.0361 34.6659C98.0361 33.4517 97.7547 32.4507 97.1921 31.6629C96.5774 30.8413 95.7547 30.4305 94.7187 30.4305C94.0161 30.4305 93.3801 30.6593 92.8094 31.1104C92.2387 31.5654 91.8667 32.1595 91.6921 32.8953C91.6054 33.2385 91.5601 33.5193 91.5601 33.7403V35.8203C91.5601 36.7277 91.8454 37.4934 92.4134 38.1187C92.9841 38.7427 93.7254 39.056 94.6401 39.056C95.7107 39.056 96.5441 38.653 97.1401 37.8496C97.7374 37.0449 98.0361 35.9841 98.0361 34.6659Z" fill="white"/>
<path d="M117.385 36.1037C117.385 37.5753 116.861 38.7726 115.809 39.6969C114.653 40.707 113.044 41.2114 110.976 41.2114C109.067 41.2114 107.536 40.8526 106.377 40.1337L107.036 37.8236C108.284 38.5594 109.653 38.9286 111.145 38.9286C112.216 38.9286 113.049 38.692 113.648 38.2214C114.244 37.7508 114.541 37.119 114.541 36.3312C114.541 35.6292 114.296 35.0377 113.804 34.558C113.315 34.0783 112.497 33.6324 111.356 33.2203C108.249 32.0906 106.697 30.4357 106.697 28.2595C106.697 26.8373 107.241 25.6712 108.331 24.7638C109.416 23.8551 110.864 23.4014 112.675 23.4014C114.289 23.4014 115.631 23.6757 116.701 24.223L115.991 26.4824C114.991 25.952 113.86 25.6868 112.595 25.6868C111.595 25.6868 110.813 25.9273 110.253 26.4057C109.78 26.8334 109.543 27.3547 109.543 27.9722C109.543 28.656 109.813 29.2215 110.357 29.6661C110.831 30.0769 111.691 30.5215 112.939 31.0012C114.465 31.6005 115.587 32.3012 116.308 33.1046C117.027 33.9054 117.385 34.9077 117.385 36.1037Z" fill="white"/>
<path d="M126.784 30.5604H123.651V36.6171C123.651 38.1576 124.203 38.9272 125.309 38.9272C125.817 38.9272 126.239 38.8843 126.572 38.7985L126.651 40.9032C126.091 41.1073 125.353 41.21 124.44 41.21C123.317 41.21 122.44 40.8759 121.807 40.209C121.176 39.5408 120.859 38.4202 120.859 36.8459V30.5578H118.992V28.4778H120.859V26.1937L123.651 25.3721V28.4778H126.784V30.5604Z" fill="white"/>
<path d="M140.921 34.6151C140.921 36.5326 140.359 38.1069 139.236 39.338C138.059 40.6055 136.496 41.2373 134.548 41.2373C132.671 41.2373 131.176 40.6302 130.061 39.416C128.947 38.2018 128.389 36.6691 128.389 34.8218C128.389 32.8887 128.963 31.3053 130.113 30.0742C131.261 28.8418 132.811 28.2256 134.759 28.2256C136.636 28.2256 138.147 28.8327 139.287 30.0482C140.377 31.2273 140.921 32.7496 140.921 34.6151ZM137.972 34.7048C137.972 33.5543 137.72 32.5676 137.209 31.7447C136.613 30.7489 135.761 30.2523 134.657 30.2523C133.515 30.2523 132.647 30.7502 132.051 31.7447C131.54 32.5689 131.288 33.5712 131.288 34.7568C131.288 35.9073 131.54 36.894 132.051 37.7156C132.665 38.7114 133.524 39.208 134.632 39.208C135.717 39.208 136.569 38.701 137.184 37.6896C137.708 36.8511 137.972 35.854 137.972 34.7048Z" fill="white"/>
<path d="M150.161 30.918C149.88 30.8673 149.58 30.8413 149.265 30.8413C148.265 30.8413 147.492 31.2092 146.948 31.9463C146.475 32.5963 146.237 33.4179 146.237 34.4098V40.9553H143.396L143.423 32.4091C143.423 30.9713 143.387 29.6622 143.316 28.4818H145.792L145.896 30.8686H145.975C146.275 30.0483 146.748 29.3879 147.396 28.8926C148.029 28.4467 148.713 28.2244 149.451 28.2244C149.713 28.2244 149.951 28.2426 150.161 28.2751V30.918Z" fill="white"/>
<path d="M162.875 34.1276C162.875 34.6242 162.841 35.0428 162.771 35.3847H154.243C154.276 36.6171 154.688 37.5596 155.48 38.2096C156.199 38.7907 157.128 39.0819 158.269 39.0819C159.532 39.0819 160.684 38.8856 161.72 38.4917L162.165 40.4157C160.955 40.9305 159.525 41.1866 157.876 41.1866C155.892 41.1866 154.335 40.6172 153.201 39.4797C152.071 38.3422 151.504 36.8147 151.504 34.8985C151.504 33.0174 152.031 31.4509 153.085 30.2016C154.189 28.8678 155.681 28.2009 157.559 28.2009C159.403 28.2009 160.799 28.8678 161.747 30.2016C162.497 31.2611 162.875 32.5715 162.875 34.1276ZM160.164 33.4087C160.183 32.5871 159.997 31.8773 159.612 31.278C159.12 30.5071 158.364 30.1223 157.347 30.1223C156.417 30.1223 155.661 30.498 155.084 31.252C154.611 31.8513 154.329 32.5702 154.243 33.4074H160.164V33.4087Z" fill="white"/>
<path d="M65.4001 13.0118C65.4001 14.5419 64.9294 15.6937 63.9894 16.4672C63.1187 17.1809 61.8814 17.5384 60.2787 17.5384C59.4841 17.5384 58.8041 17.5046 58.2347 17.437V9.0767C58.9774 8.9597 59.7774 8.8999 60.6414 8.8999C62.1681 8.8999 63.3187 9.2236 64.0947 9.871C64.9641 10.6029 65.4001 11.6494 65.4001 13.0118ZM63.9267 13.0495C63.9267 12.0576 63.6574 11.2971 63.1187 10.7667C62.5801 10.2376 61.7934 9.9724 60.7574 9.9724C60.3174 9.9724 59.9427 10.001 59.6321 10.0608V16.4165C59.8041 16.4425 60.1187 16.4542 60.5761 16.4542C61.6454 16.4542 62.4707 16.1643 63.0521 15.5845C63.6334 15.0047 63.9267 14.1597 63.9267 13.0495Z" fill="white"/>
<path d="M73.2121 14.3482C73.2121 15.2907 72.9361 16.0629 72.3841 16.6687C71.8054 17.2914 71.0388 17.6021 70.0814 17.6021C69.1588 17.6021 68.4241 17.3044 67.8761 16.7064C67.3294 16.1097 67.0561 15.357 67.0561 14.4496C67.0561 13.5006 67.3374 12.7219 67.9028 12.1174C68.4681 11.5129 69.2281 11.21 70.1854 11.21C71.1081 11.21 71.8494 11.5077 72.4108 12.1044C72.9441 12.6842 73.2121 13.433 73.2121 14.3482ZM71.7628 14.3924C71.7628 13.8269 71.6374 13.342 71.3881 12.9377C71.0948 12.4489 70.6774 12.2045 70.1348 12.2045C69.5734 12.2045 69.1468 12.4489 68.8534 12.9377C68.6028 13.342 68.4788 13.8347 68.4788 14.4171C68.4788 14.9826 68.6041 15.4675 68.8534 15.8718C69.1561 16.3606 69.5774 16.605 70.1214 16.605C70.6548 16.605 71.0734 16.3567 71.3748 15.8588C71.6334 15.4467 71.7628 14.9579 71.7628 14.3924Z" fill="white"/>
<path d="M83.6867 11.335L81.7201 17.4632H80.4401L79.6254 14.8021C79.4187 14.1378 79.2507 13.4774 79.1201 12.8222H79.0947C78.9734 13.4956 78.8054 14.1547 78.5894 14.8021L77.7241 17.4632H76.4294L74.5801 11.335H76.0161L76.7267 14.2483C76.8987 14.9373 77.0401 15.5938 77.1534 16.2152H77.1787C77.2827 15.703 77.4547 15.0504 77.6974 14.2613L78.5894 11.3363H79.7281L80.5827 14.1989C80.7894 14.897 80.9574 15.5691 81.0867 16.2165H81.1254C81.2201 15.586 81.3627 14.9139 81.5521 14.1989L82.3147 11.3363H83.6867V11.335Z" fill="white"/>
<path d="M90.9307 17.463H89.5334V13.953C89.5334 12.8714 89.112 12.3306 88.2667 12.3306C87.852 12.3306 87.5174 12.4788 87.2574 12.7765C87 13.0742 86.8694 13.4252 86.8694 13.8269V17.4617H85.472V13.0859C85.472 12.5477 85.4547 11.964 85.4214 11.3322H86.6494L86.7147 12.2903H86.7534C86.9161 11.9926 87.1587 11.7469 87.4774 11.5506C87.856 11.3218 88.28 11.2061 88.744 11.2061C89.3307 11.2061 89.8187 11.3907 90.2067 11.7612C90.6894 12.2149 90.9307 12.8922 90.9307 13.7918V17.463V17.463Z" fill="white"/>
<path d="M94.7841 17.463H93.3881V8.52295H94.7841V17.463Z" fill="white"/>
<path d="M103.011 14.3482C103.011 15.2907 102.735 16.0629 102.183 16.6687C101.604 17.2914 100.836 17.6021 99.8801 17.6021C98.9561 17.6021 98.2214 17.3044 97.6747 16.7064C97.1281 16.1097 96.8547 15.357 96.8547 14.4496C96.8547 13.5006 97.1361 12.7219 97.7014 12.1174C98.2667 11.5129 99.0267 11.21 99.9827 11.21C100.907 11.21 101.647 11.5077 102.209 12.1044C102.743 12.6842 103.011 13.433 103.011 14.3482ZM101.56 14.3924C101.56 13.8269 101.435 13.342 101.185 12.9377C100.893 12.4489 100.475 12.2045 99.9334 12.2045C99.3707 12.2045 98.9441 12.4489 98.6521 12.9377C98.4014 13.342 98.2774 13.8347 98.2774 14.4171C98.2774 14.9826 98.4027 15.4675 98.6521 15.8718C98.9547 16.3606 99.3761 16.605 99.9201 16.605C100.453 16.605 100.871 16.3567 101.172 15.8588C101.432 15.4467 101.56 14.9579 101.56 14.3924Z" fill="white"/>
<path d="M109.773 17.463H108.519L108.415 16.7571H108.376C107.947 17.32 107.335 17.6021 106.54 17.6021C105.947 17.6021 105.467 17.4162 105.105 17.047C104.777 16.7116 104.613 16.2943 104.613 15.799C104.613 15.0502 104.933 14.4795 105.577 14.0843C106.22 13.6891 107.124 13.4954 108.288 13.5045V13.3901C108.288 12.5828 107.853 12.1798 106.983 12.1798C106.363 12.1798 105.816 12.3319 105.344 12.6335L105.06 11.7391C105.644 11.3868 106.365 11.21 107.216 11.21C108.859 11.21 109.683 12.055 109.683 13.745V16.0018C109.683 16.6141 109.713 17.1016 109.773 17.463ZM108.323 15.357V14.4119C106.781 14.3859 106.011 14.798 106.011 15.6469C106.011 15.9667 106.099 16.2059 106.279 16.3658C106.459 16.5257 106.688 16.605 106.961 16.605C107.268 16.605 107.555 16.5101 107.816 16.3216C108.079 16.1318 108.24 15.8913 108.3 15.5962C108.315 15.5299 108.323 15.4493 108.323 15.357Z" fill="white"/>
<path d="M117.713 17.463H116.473L116.408 16.4789H116.369C115.973 17.2277 115.299 17.6021 114.351 17.6021C113.593 17.6021 112.963 17.3122 112.463 16.7324C111.963 16.1526 111.713 15.3999 111.713 14.4756C111.713 13.4837 111.984 12.6803 112.528 12.0667C113.055 11.4947 113.7 11.2087 114.468 11.2087C115.312 11.2087 115.903 11.4856 116.239 12.0407H116.265V8.52295H117.664V15.812C117.664 16.4087 117.68 16.9586 117.713 17.463ZM116.265 14.8786V13.8568C116.265 13.68 116.252 13.537 116.227 13.4278C116.148 13.1002 115.979 12.8246 115.721 12.6023C115.461 12.38 115.148 12.2682 114.787 12.2682C114.265 12.2682 113.857 12.4697 113.557 12.874C113.26 13.2783 113.109 13.7944 113.109 14.4249C113.109 15.0307 113.252 15.5221 113.539 15.9004C113.841 16.3034 114.249 16.5049 114.76 16.5049C115.219 16.5049 115.585 16.3372 115.864 16.0005C116.133 15.6898 116.265 15.3154 116.265 14.8786Z" fill="white"/>
<path d="M129.664 14.3482C129.664 15.2907 129.388 16.0629 128.836 16.6687C128.257 17.2914 127.492 17.6021 126.533 17.6021C125.612 17.6021 124.877 17.3044 124.328 16.7064C123.781 16.1097 123.508 15.357 123.508 14.4496C123.508 13.5006 123.789 12.7219 124.355 12.1174C124.92 11.5129 125.68 11.21 126.639 11.21C127.56 11.21 128.303 11.5077 128.863 12.1044C129.396 12.6842 129.664 13.433 129.664 14.3482ZM128.216 14.3924C128.216 13.8269 128.091 13.342 127.841 12.9377C127.547 12.4489 127.131 12.2045 126.587 12.2045C126.027 12.2045 125.6 12.4489 125.305 12.9377C125.055 13.342 124.931 13.8347 124.931 14.4171C124.931 14.9826 125.056 15.4675 125.305 15.8718C125.608 16.3606 126.029 16.605 126.573 16.605C127.107 16.605 127.527 16.3567 127.828 15.8588C128.085 15.4467 128.216 14.9579 128.216 14.3924Z" fill="white"/>
<path d="M137.177 17.463H135.781V13.953C135.781 12.8714 135.36 12.3306 134.513 12.3306C134.099 12.3306 133.764 12.4788 133.505 12.7765C133.247 13.0742 133.117 13.4252 133.117 13.8269V17.4617H131.719V13.0859C131.719 12.5477 131.703 11.964 131.669 11.3322H132.896L132.961 12.2903H133C133.164 11.9926 133.407 11.7469 133.724 11.5506C134.104 11.3218 134.527 11.2061 134.992 11.2061C135.577 11.2061 136.065 11.3907 136.453 11.7612C136.937 12.2149 137.177 12.8922 137.177 13.7918V17.463V17.463Z" fill="white"/>
<path d="M146.581 12.3553H145.043V15.3323C145.043 16.0889 145.316 16.4672 145.857 16.4672C146.108 16.4672 146.316 16.4464 146.48 16.4035L146.516 17.437C146.24 17.5384 145.877 17.5891 145.431 17.5891C144.879 17.5891 144.449 17.4253 144.139 17.0977C143.827 16.7701 143.672 16.2189 143.672 15.4454V12.3553H142.753V11.3348H143.672V10.2116L145.041 9.80859V11.3335H146.58V12.3553H146.581Z" fill="white"/>
<path d="M153.979 17.463H152.58V13.979C152.58 12.8805 152.159 12.3306 151.315 12.3306C150.667 12.3306 150.224 12.6491 149.981 13.2861C149.94 13.42 149.916 13.5838 149.916 13.7762V17.4617H148.52V8.52295H149.916V12.2162H149.943C150.383 11.5441 151.013 11.2087 151.831 11.2087C152.409 11.2087 152.888 11.3933 153.268 11.7638C153.741 12.2253 153.979 12.9117 153.979 13.8191V17.463V17.463Z" fill="white"/>
<path d="M161.609 14.1089C161.609 14.3533 161.591 14.5587 161.557 14.7264H157.367C157.385 15.3322 157.585 15.7937 157.973 16.1135C158.328 16.3995 158.785 16.5425 159.345 16.5425C159.965 16.5425 160.531 16.4463 161.04 16.2526L161.259 17.199C160.663 17.4512 159.961 17.5773 159.149 17.5773C158.176 17.5773 157.409 17.2978 156.855 16.7388C156.297 16.1798 156.021 15.4297 156.021 14.4885C156.021 13.5642 156.279 12.7946 156.797 12.181C157.339 11.5258 158.071 11.1982 158.995 11.1982C159.899 11.1982 160.585 11.5258 161.049 12.181C161.424 12.701 161.609 13.3445 161.609 14.1089ZM160.276 13.7566C160.287 13.3523 160.195 13.0039 160.005 12.7101C159.763 12.3318 159.393 12.142 158.893 12.142C158.437 12.142 158.065 12.3266 157.781 12.6971C157.549 12.9922 157.412 13.3445 157.367 13.7566H160.276Z" fill="white"/>
</g>
<rect x="0.5" y="0.5" width="179" height="51" rx="5.5" stroke="#A6A6A6"/>
<defs>
<clipPath id="clip0_3332_1099">
<rect width="180" height="52" rx="6" fill="white"/>
</clipPath>
</defs>
</svg>
