<svg width="169" height="56" viewBox="0 0 169 56" fill="none" xmlns="http://www.w3.org/2000/svg">
<g clip-path="url(#clip0_3104_899)">
<path d="M155.542 2.40881e-06H13.4657C12.9478 2.40881e-06 12.4361 2.40887e-06 11.9196 0.00280242C11.4873 0.00560243 11.0583 0.0137365 10.6218 0.0205825C9.67348 0.031645 8.72738 0.11435 7.79173 0.267977C6.85739 0.424949 5.95233 0.720887 5.10714 1.14578C4.26299 1.57427 3.49166 2.13104 2.82114 2.79591C2.1471 3.45891 1.58524 4.22524 1.15716 5.06544C0.727893 5.90397 0.43024 6.80254 0.274478 7.7301C0.117235 8.65649 0.0326215 9.59356 0.0213961 10.5329C0.00829013 10.9621 0.00690608 11.3928 0 11.8221V44.1822C0.00690608 44.6169 0.00829013 45.038 0.0213961 45.4728C0.032625 46.4121 0.117239 47.3492 0.274478 48.2755C0.42981 49.2036 0.727481 50.1027 1.15716 50.9415C1.58505 51.779 2.14699 52.5423 2.82114 53.2016C3.48912 53.8694 4.26094 54.4265 5.10714 54.8518C5.95232 55.2778 6.85729 55.5755 7.79173 55.7349C8.72754 55.8873 9.67354 55.97 10.6218 55.9824C11.0583 55.9919 11.4873 55.9974 11.9196 55.9974C12.4361 56.0002 12.9478 56.0002 13.4657 56.0002H155.542C156.049 56.0002 156.565 56.0002 157.073 55.9974C157.503 55.9974 157.944 55.9919 158.375 55.9824C159.321 55.9707 160.265 55.8879 161.199 55.7349C162.137 55.5744 163.045 55.2767 163.894 54.8518C164.74 54.4263 165.511 53.8692 166.178 53.2016C166.851 52.5397 167.414 51.777 167.847 50.9415C168.273 50.1021 168.568 49.2031 168.721 48.2755C168.879 47.349 168.966 46.4122 168.983 45.4728C168.989 45.038 168.989 44.6169 168.989 44.1822C169 43.6736 169 43.1677 169 42.6509V13.3506C169 12.8379 169 12.3293 168.989 11.8221C168.989 11.3928 168.989 10.9621 168.983 10.5329C168.966 9.59342 168.879 8.65656 168.721 7.73004C168.568 6.80302 168.273 5.90453 167.847 5.06539C166.975 3.38129 165.593 2.01044 163.894 1.14565C163.045 0.721799 162.137 0.42594 161.199 0.267851C160.266 0.113547 159.321 0.0308134 158.375 0.0203865C157.944 0.0135545 157.503 0.00535043 157.073 0.00262042C156.565 -0.000179592 156.049 2.40881e-06 155.542 2.40881e-06Z" fill="#A6A6A6"/>
<path d="M11.9265 54.7751C11.4962 54.7751 11.0763 54.7696 10.6494 54.7601C9.76498 54.7487 8.88264 54.6724 8.00961 54.5318C7.19556 54.3928 6.40696 54.1343 5.66982 53.7647C4.93945 53.3982 4.27328 52.9177 3.69686 52.3415C3.11209 51.7721 2.62524 51.1116 2.2556 50.3864C1.8819 49.6564 1.62327 48.874 1.48873 48.0663C1.34344 47.1985 1.26483 46.3209 1.25359 45.4413C1.24463 45.146 1.23291 44.163 1.23291 44.163V11.8222C1.23291 11.8222 1.24539 10.8542 1.25366 10.5698C1.26443 9.69157 1.34258 8.81541 1.48743 7.94892C1.62222 7.13905 1.88105 6.35435 2.25495 5.62198C2.62323 4.89722 3.10737 4.2363 3.68862 3.66485C4.26922 3.08797 4.93751 2.60494 5.66913 2.23339C6.40457 1.86503 7.19168 1.60832 8.00409 1.47188C8.87999 1.32987 9.76538 1.25309 10.6528 1.24219L11.9272 1.2251H157.066L158.355 1.24288C159.235 1.25324 160.112 1.32933 160.98 1.4705C161.801 1.60866 162.596 1.86716 163.34 2.23749C164.806 2.98628 165.998 4.17093 166.75 5.6254C167.118 6.35271 167.373 7.13101 167.506 7.93388C167.653 8.80749 167.735 9.69053 167.752 10.576C167.756 10.9725 167.756 11.3983 167.756 11.8222C167.767 12.3472 167.767 12.8469 167.767 13.3507V42.6508C167.767 43.1594 167.767 43.6557 167.756 44.1561C167.756 44.6114 167.756 45.0284 167.75 45.4577C167.734 46.3273 167.653 47.1946 167.509 48.0526C167.377 48.8661 167.12 49.6546 166.746 50.3906C166.374 51.108 165.89 51.7627 165.312 52.3306C164.735 52.9099 164.068 53.3932 163.336 53.7621C162.594 54.1345 161.8 54.3939 160.98 54.5318C160.107 54.6731 159.225 54.7494 158.34 54.7601C157.927 54.7696 157.493 54.7751 157.073 54.7751L155.542 54.7779L11.9265 54.7751Z" fill="black"/>
<path d="M34.9806 28.421C34.9958 27.2525 35.3089 26.1067 35.8908 25.0904C36.4727 24.0741 37.3044 23.2202 38.3087 22.6081C37.6707 21.7049 36.8291 20.9616 35.8506 20.4372C34.8721 19.9128 33.7838 19.6218 32.672 19.5874C30.3005 19.3406 28.0013 20.9941 26.7928 20.9941C25.5609 20.9941 23.7003 19.6119 21.6966 19.6527C20.4006 19.6942 19.1375 20.0678 18.0304 20.7371C16.9234 21.4064 16.0101 22.3485 15.3796 23.4717C12.6482 28.1595 14.6855 35.049 17.302 38.8383C18.611 40.6937 20.1409 42.7664 22.1428 42.6929C24.1017 42.6123 24.8333 41.4546 27.1979 41.4546C29.5405 41.4546 30.227 42.6929 32.2694 42.6461C34.3714 42.6123 35.6958 40.7824 36.9589 38.9093C37.8995 37.5872 38.6232 36.126 39.1034 34.5798C37.8822 34.0678 36.84 33.2108 36.1069 32.1156C35.3737 31.0203 34.982 29.7354 34.9806 28.421Z" fill="white"/>
<path d="M31.1227 17.0954C32.2688 15.7315 32.8334 13.9784 32.6967 12.2085C30.9457 12.3908 29.3283 13.2204 28.1667 14.5319C27.5987 15.1727 27.1637 15.9181 26.8866 16.7256C26.6094 17.533 26.4955 18.3868 26.5514 19.2379C27.4272 19.2468 28.2937 19.0587 29.0855 18.6875C29.8773 18.3164 30.5739 17.772 31.1227 17.0954Z" fill="white"/>
<path d="M59.7429 37.9955H53.0579L51.4526 42.6945H48.6211L54.9529 25.3093H57.8947L64.2266 42.6945H61.3468L59.7429 37.9955ZM53.7503 35.8271H59.0492L56.437 28.201H56.3639L53.7503 35.8271Z" fill="white"/>
<path d="M77.9014 36.3578C77.9014 40.2966 75.7747 42.8273 72.5653 42.8273C71.7524 42.8695 70.9438 42.6838 70.2323 42.2916C69.5208 41.8994 68.9351 41.3165 68.5423 40.6097H68.4815V46.8878H65.8569V30.0195H68.3974V32.1277H68.4457C68.8566 31.4242 69.4522 30.8444 70.1691 30.4498C70.8861 30.0552 71.6975 29.8607 72.5171 29.8869C75.7622 29.8869 77.9014 32.4298 77.9014 36.3578ZM75.2037 36.3578C75.2037 33.7916 73.8659 32.1044 71.8247 32.1044C69.8194 32.1044 68.4705 33.8271 68.4705 36.3578C68.4705 38.9117 69.8194 40.622 71.8247 40.622C73.8659 40.622 75.2037 38.9472 75.2037 36.3578Z" fill="white"/>
<path d="M91.9746 36.3578C91.9746 40.2966 89.8479 42.8273 86.6386 42.8273C85.8256 42.8694 85.0171 42.6838 84.3056 42.2916C83.5941 41.8994 83.0083 41.3165 82.6155 40.6097H82.5548V46.8878H79.9302V30.0195H82.4706V32.1277H82.5189C82.9298 31.4242 83.5254 30.8444 84.2423 30.4498C84.9593 30.0552 85.7707 29.8607 86.5903 29.8869C89.8355 29.8869 91.9746 32.4298 91.9746 36.3578ZM89.277 36.3578C89.277 33.7916 87.9391 32.1044 85.8979 32.1044C83.8926 32.1044 82.5438 33.8271 82.5438 36.3578C82.5438 38.9117 83.8926 40.622 85.8979 40.622C87.9392 40.622 89.277 38.9472 89.277 36.3578Z" fill="white"/>
<path d="M101.276 37.8507C101.47 39.5747 103.16 40.7067 105.468 40.7067C107.681 40.7067 109.272 39.5746 109.272 38.0201C109.272 36.6707 108.312 35.8627 106.039 35.309L103.766 34.7662C100.546 33.9951 99.0509 32.5022 99.0509 30.0795C99.0509 27.0799 101.688 25.0195 105.432 25.0195C109.138 25.0195 111.679 27.0799 111.764 30.0795H109.115C108.956 28.3445 107.509 27.2973 105.395 27.2973C103.281 27.2973 101.834 28.3569 101.834 29.899C101.834 31.1281 102.758 31.8514 105.019 32.405L106.951 32.8754C110.549 33.7189 112.044 35.1518 112.044 37.6947C112.044 40.9472 109.431 42.9843 105.274 42.9843C101.384 42.9843 98.7585 40.9951 98.5889 37.8505L101.276 37.8507Z" fill="white"/>
<path d="M117.709 27.0198V30.0194H120.14V32.0797H117.709V39.0674C117.709 40.153 118.195 40.6588 119.264 40.6588C119.553 40.6539 119.841 40.6338 120.128 40.5986V42.6467C119.647 42.7357 119.159 42.776 118.67 42.767C116.081 42.767 115.072 41.8031 115.072 39.3449V32.0797H113.212V30.0194H115.072V27.0198H117.709Z" fill="white"/>
<path d="M121.548 36.3577C121.548 32.3696 123.918 29.8635 127.613 29.8635C131.32 29.8635 133.678 32.3695 133.678 36.3577C133.678 40.3567 131.332 42.8518 127.613 42.8518C123.894 42.8518 121.548 40.3567 121.548 36.3577ZM131.004 36.3577C131.004 33.6219 129.739 32.0073 127.613 32.0073C125.486 32.0073 124.223 33.6342 124.223 36.3577C124.223 39.1043 125.486 40.7067 127.613 40.7067C129.739 40.7067 131.004 39.1043 131.004 36.3577Z" fill="white"/>
<path d="M135.842 30.0194H138.346V32.1768H138.406C138.576 31.503 138.974 30.9075 139.534 30.4905C140.094 30.0734 140.782 29.8602 141.482 29.8867C141.784 29.8857 142.086 29.9182 142.381 29.9838V32.4174C141.999 32.3017 141.601 32.2486 141.202 32.2602C140.821 32.2448 140.44 32.3115 140.088 32.4555C139.735 32.5996 139.417 32.8176 139.158 33.0946C138.898 33.3717 138.702 33.7012 138.582 34.0605C138.463 34.4199 138.424 34.8005 138.467 35.1764V42.6945H135.842L135.842 30.0194Z" fill="white"/>
<path d="M154.482 38.9717C154.129 41.2727 151.868 42.8518 148.976 42.8518C145.257 42.8518 142.948 40.3813 142.948 36.4178C142.948 32.442 145.269 29.8635 148.866 29.8635C152.403 29.8635 154.628 32.2725 154.628 36.1157V37.0071H145.597V37.1643C145.556 37.6308 145.614 38.1007 145.77 38.5429C145.926 38.9851 146.174 39.3894 146.5 39.7289C146.825 40.0685 147.219 40.3356 147.657 40.5124C148.094 40.6892 148.565 40.7718 149.037 40.7545C149.657 40.8121 150.28 40.6697 150.812 40.3485C151.344 40.0273 151.757 39.5444 151.99 38.9717L154.482 38.9717ZM145.61 35.1887H152.002C152.026 34.7693 151.962 34.3496 151.814 33.9559C151.666 33.5622 151.438 33.203 151.143 32.9009C150.849 32.5989 150.494 32.3604 150.102 32.2005C149.71 32.0406 149.29 31.9627 148.866 31.9717C148.438 31.9692 148.015 32.0506 147.619 32.2112C147.224 32.3719 146.864 32.6086 146.562 32.9077C146.259 33.2067 146.019 33.5623 145.855 33.9538C145.692 34.3453 145.608 34.765 145.61 35.1887Z" fill="white"/>
<path d="M53.4213 12.2233C53.9715 12.1842 54.5237 12.2666 55.0379 12.4646C55.5522 12.6626 56.0157 12.9713 56.395 13.3684C56.7743 13.7654 57.06 14.241 57.2314 14.7608C57.4029 15.2806 57.4558 15.8316 57.3865 16.3741C57.3865 19.0429 55.9314 20.5769 53.4213 20.5769H50.3774V12.2233H53.4213ZM51.6863 19.3955H53.2751C53.6683 19.4188 54.0618 19.3549 54.4269 19.2085C54.792 19.062 55.1196 18.8367 55.3858 18.5489C55.652 18.2611 55.8502 17.9181 55.9658 17.5448C56.0814 17.1716 56.1116 16.7774 56.0542 16.3911C56.1074 16.0064 56.0742 15.6147 55.9568 15.2442C55.8394 14.8736 55.6408 14.5334 55.3752 14.2479C55.1096 13.9624 54.7836 13.7387 54.4205 13.5928C54.0574 13.4468 53.6663 13.3823 53.2751 13.4038H51.6863V19.3955Z" fill="white"/>
<path d="M58.8648 17.4221C58.8248 17.0078 58.8726 16.5898 59.0051 16.1949C59.1377 15.8 59.352 15.4369 59.6344 15.1289C59.9167 14.8209 60.2609 14.5749 60.6449 14.4065C61.0288 14.2381 61.444 14.1511 61.8638 14.1511C62.2836 14.1511 62.6988 14.2381 63.0828 14.4065C63.4667 14.5749 63.8109 14.8209 64.0933 15.1289C64.3756 15.4369 64.59 15.8 64.7225 16.1949C64.855 16.5898 64.9028 17.0078 64.8629 17.4221C64.9036 17.8368 64.8564 18.2553 64.7242 18.6509C64.592 19.0464 64.3778 19.4102 64.0954 19.7187C63.8129 20.0273 63.4685 20.2739 63.0841 20.4426C62.6998 20.6114 62.2841 20.6986 61.8638 20.6986C61.4435 20.6986 61.0278 20.6114 60.6435 20.4426C60.2592 20.2739 59.9147 20.0273 59.6323 19.7187C59.3498 19.4102 59.1356 19.0464 59.0035 18.6509C58.8713 18.2553 58.824 17.8368 58.8648 17.4221ZM63.5719 17.4221C63.5719 16.0556 62.9527 15.2564 61.8659 15.2564C60.7749 15.2564 60.1613 16.0556 60.1613 17.4221C60.1613 18.7995 60.775 19.5925 61.8659 19.5925C62.9527 19.5925 63.5719 18.794 63.5719 17.4221Z" fill="white"/>
<path d="M72.836 20.5768H71.534L70.2197 15.9338H70.1204L68.8115 20.5768H67.522L65.769 14.2727H67.042L68.1812 19.0831H68.275L69.5825 14.2727H70.7865L72.094 19.0831H72.1933L73.327 14.2727H74.582L72.836 20.5768Z" fill="white"/>
<path d="M76.0567 14.2727H77.2648V15.2741H77.3586C77.5177 14.9144 77.786 14.6129 78.1262 14.4116C78.4664 14.2103 78.8615 14.1192 79.2564 14.151C79.5658 14.1279 79.8765 14.1742 80.1654 14.2863C80.4544 14.3984 80.7142 14.5736 80.9256 14.7988C81.137 15.0239 81.2946 15.2934 81.3866 15.5871C81.4787 15.8809 81.503 16.1914 81.4575 16.4957V20.5767H80.2025V16.8081C80.2025 15.795 79.7584 15.2912 78.8302 15.2912C78.6201 15.2815 78.4104 15.317 78.2154 15.3951C78.0204 15.4733 77.8448 15.5923 77.7006 15.7441C77.5563 15.8958 77.4469 16.0767 77.3798 16.2742C77.3127 16.4718 77.2894 16.6815 77.3117 16.8888V20.5768H76.0566L76.0567 14.2727Z" fill="white"/>
<path d="M83.457 11.8118H84.7121V20.5768H83.457V11.8118Z" fill="white"/>
<path d="M86.457 17.4219C86.4171 17.0076 86.4649 16.5896 86.5975 16.1947C86.73 15.7998 86.9444 15.4367 87.2268 15.1287C87.5092 14.8207 87.8534 14.5746 88.2374 14.4063C88.6213 14.2379 89.0366 14.1509 89.4564 14.1509C89.8763 14.1509 90.2915 14.2379 90.6754 14.4063C91.0594 14.5746 91.4036 14.8207 91.686 15.1287C91.9684 15.4367 92.1828 15.7998 92.3153 16.1947C92.4479 16.5896 92.4957 17.0076 92.4558 17.4219C92.4965 17.8367 92.4492 18.2552 92.317 18.6508C92.1848 19.0463 91.9705 19.41 91.6881 19.7186C91.4056 20.0272 91.0611 20.2738 90.6768 20.4425C90.2924 20.6112 89.8768 20.6984 89.4564 20.6984C89.0361 20.6984 88.6204 20.6112 88.236 20.4425C87.8517 20.2738 87.5072 20.0272 87.2248 19.7186C86.9423 19.41 86.7281 19.0463 86.5958 18.6508C86.4636 18.2552 86.4163 17.8367 86.457 17.4219ZM91.1642 17.4219C91.1642 16.0554 90.5449 15.2563 89.4581 15.2563C88.3672 15.2563 87.7535 16.0554 87.7535 17.4219C87.7535 18.7994 88.3672 19.5923 89.4581 19.5923C90.5449 19.5923 91.1642 18.7939 91.1642 17.4219Z" fill="white"/>
<path d="M93.7769 18.7941C93.7769 17.6593 94.6292 17.0051 96.1421 16.9121L97.8648 16.8137V16.2696C97.8648 15.6038 97.4207 15.2278 96.5628 15.2278C95.8622 15.2278 95.3767 15.4828 95.2374 15.9285H94.0224C94.1506 14.8456 95.1781 14.1511 96.6207 14.1511C98.2151 14.1511 99.1143 14.9379 99.1143 16.2696V20.5769H97.9061V19.691H97.8068C97.6053 20.0088 97.3223 20.2678 96.9867 20.4417C96.6511 20.6156 96.2749 20.6981 95.8967 20.6808C95.6297 20.7083 95.3599 20.6801 95.1046 20.5979C94.8493 20.5157 94.6142 20.3814 94.4145 20.2036C94.2148 20.0259 94.0548 19.8086 93.945 19.5658C93.8352 19.3231 93.7779 19.0602 93.7769 18.7941ZM97.8648 18.2554V17.7284L96.3118 17.8268C95.436 17.8849 95.0388 18.1802 95.0388 18.736C95.0388 19.3033 95.5353 19.6335 96.2181 19.6335C96.4181 19.6536 96.6202 19.6336 96.8123 19.5746C97.0043 19.5157 97.1825 19.4191 97.3361 19.2905C97.4898 19.1619 97.6157 19.004 97.7066 18.8262C97.7974 18.6484 97.8512 18.4543 97.8648 18.2554Z" fill="white"/>
<path d="M100.764 17.422C100.764 15.4301 101.797 14.1681 103.404 14.1681C103.801 14.15 104.196 14.2443 104.541 14.4402C104.886 14.6361 105.168 14.9253 105.354 15.2741H105.448V11.8118H106.703V20.5768H105.5V19.5808H105.401C105.201 19.9273 104.909 20.2129 104.557 20.4068C104.205 20.6007 103.806 20.6954 103.404 20.6807C101.786 20.6808 100.764 19.4188 100.764 17.422ZM102.061 17.422C102.061 18.7592 102.696 19.5637 103.76 19.5637C104.818 19.5637 105.471 18.7475 105.471 17.4275C105.471 16.1136 104.811 15.2858 103.76 15.2858C102.703 15.2858 102.061 16.0959 102.061 17.422Z" fill="white"/>
<path d="M111.896 17.4221C111.856 17.0078 111.903 16.5898 112.036 16.1949C112.168 15.8 112.383 15.4369 112.665 15.1289C112.947 14.8209 113.292 14.5749 113.676 14.4065C114.06 14.2381 114.475 14.1511 114.895 14.1511C115.314 14.1511 115.73 14.2381 116.114 14.4065C116.497 14.5749 116.842 14.8209 117.124 15.1289C117.406 15.4369 117.621 15.8 117.753 16.1949C117.886 16.5898 117.934 17.0078 117.894 17.4221C117.934 17.8368 117.887 18.2553 117.755 18.6509C117.623 19.0464 117.409 19.4102 117.126 19.7187C116.844 20.0273 116.499 20.2739 116.115 20.4426C115.731 20.6114 115.315 20.6986 114.895 20.6986C114.474 20.6986 114.059 20.6114 113.674 20.4426C113.29 20.2739 112.945 20.0273 112.663 19.7187C112.381 19.4102 112.166 19.0464 112.034 18.6509C111.902 18.2553 111.855 17.8368 111.896 17.4221ZM116.603 17.4221C116.603 16.0556 115.983 15.2564 114.897 15.2564C113.806 15.2564 113.192 16.0556 113.192 17.4221C113.192 18.7995 113.806 19.5925 114.897 19.5925C115.983 19.5925 116.603 18.794 116.603 17.4221Z" fill="white"/>
<path d="M119.578 14.2727H120.786V15.2741H120.88C121.039 14.9144 121.307 14.6129 121.647 14.4116C121.987 14.2103 122.382 14.1192 122.777 14.151C123.087 14.1279 123.397 14.1742 123.686 14.2863C123.975 14.3984 124.235 14.5736 124.447 14.7988C124.658 15.0239 124.816 15.2934 124.908 15.5871C125 15.8809 125.024 16.1914 124.979 16.4957V20.5767H123.723V16.8081C123.723 15.795 123.279 15.2912 122.351 15.2912C122.141 15.2815 121.931 15.317 121.736 15.3951C121.541 15.4733 121.366 15.5923 121.222 15.7441C121.077 15.8958 120.968 16.0767 120.901 16.2742C120.834 16.4718 120.81 16.6815 120.833 16.8888V20.5768H119.578V14.2727Z" fill="white"/>
<path d="M132.07 12.7031V14.3014H133.448V15.3493H132.07V18.5909C132.07 19.2513 132.345 19.5404 132.969 19.5404C133.129 19.5399 133.289 19.5303 133.448 19.5117V20.548C133.223 20.588 132.994 20.6093 132.765 20.6116C131.37 20.6116 130.814 20.1249 130.814 18.9095V15.3493H129.804V14.3013H130.814V12.7031H132.07Z" fill="white"/>
<path d="M135.162 11.8118H136.406V15.2858H136.505C136.672 14.9227 136.948 14.6195 137.295 14.4174C137.642 14.2153 138.043 14.1242 138.444 14.1565C138.752 14.1399 139.06 14.1908 139.346 14.3057C139.631 14.4206 139.888 14.5965 140.097 14.821C140.306 15.0454 140.463 15.3129 140.556 15.6043C140.649 15.8957 140.676 16.2038 140.635 16.5067V20.5768H139.378V16.8136C139.378 15.8067 138.905 15.2967 138.018 15.2967C137.803 15.2792 137.586 15.3086 137.383 15.3829C137.18 15.4571 136.995 15.5745 136.843 15.7267C136.69 15.879 136.573 16.0624 136.5 16.2642C136.426 16.466 136.398 16.6812 136.417 16.895V20.5768H135.162L135.162 11.8118Z" fill="white"/>
<path d="M147.953 18.8746C147.782 19.4508 147.413 19.9491 146.909 20.2826C146.405 20.616 145.799 20.7632 145.197 20.6984C144.778 20.7094 144.362 20.6298 143.977 20.4653C143.592 20.3008 143.248 20.0552 142.969 19.7456C142.689 19.436 142.481 19.0698 142.358 18.6725C142.236 18.2751 142.202 17.8561 142.26 17.4445C142.204 17.0317 142.238 16.6118 142.36 16.2133C142.482 15.8147 142.689 15.4468 142.968 15.1345C143.246 14.8222 143.588 14.5728 143.972 14.4031C144.355 14.2334 144.772 14.1474 145.192 14.151C146.961 14.151 148.029 15.3494 148.029 17.329V17.7631H143.538V17.8328C143.518 18.0642 143.548 18.297 143.624 18.5165C143.701 18.7359 143.822 18.9371 143.982 19.1072C144.141 19.2772 144.335 19.4123 144.55 19.5039C144.765 19.5954 144.997 19.6414 145.232 19.6388C145.532 19.6746 145.836 19.621 146.105 19.4849C146.375 19.3488 146.597 19.1363 146.745 18.8746L147.953 18.8746ZM143.538 16.843H146.75C146.766 16.6314 146.737 16.4189 146.665 16.2191C146.593 16.0193 146.48 15.8366 146.332 15.6828C146.185 15.529 146.007 15.4075 145.809 15.326C145.611 15.2446 145.399 15.205 145.185 15.2099C144.968 15.2072 144.752 15.2476 144.551 15.3287C144.35 15.4098 144.167 15.53 144.014 15.6822C143.861 15.8344 143.739 16.0155 143.658 16.2149C143.576 16.4142 143.535 16.6278 143.538 16.843Z" fill="white"/>
</g>
<defs>
<clipPath id="clip0_3104_899">
<rect width="169" height="56" fill="white"/>
</clipPath>
</defs>
</svg>
