<svg width="144" height="144" viewBox="0 0 144 144" fill="none" xmlns="http://www.w3.org/2000/svg">
<path fill-rule="evenodd" clip-rule="evenodd" d="M36.0745 18.4607C37.5027 18.2421 39.0038 18.1301 40.5813 18.1301H97.3735C98.9323 18.1301 100.257 18.1918 101.453 18.39C101.517 18.4008 101.582 18.4099 101.647 18.4174C108.898 19.2561 114.646 22.3044 118.588 26.8478C122.534 31.396 124.895 37.7036 124.895 45.4495V50.4861H115.799C111.222 50.4861 106.981 52.2768 103.881 55.4244C102.074 57.1899 100.663 59.3666 99.7989 61.7904C98.911 64.1531 98.5261 66.755 98.7721 69.4424C99.5417 78.7524 107.746 85.2033 116.363 85.2033H124.895V89.3878C124.895 97.8623 122.074 104.616 117.418 109.247C112.758 113.883 105.94 116.707 97.3735 116.707H81.5979C79.3721 116.707 77.5678 118.527 77.5678 120.772C77.5678 123.017 79.3721 124.837 81.5979 124.837H97.3735C107.738 124.837 116.696 121.385 123.078 115.036C129.465 108.682 132.955 99.7441 132.955 89.3878V84.1936C136.542 82.4874 139 78.8099 139 74.5653V61.2887C139 57.0442 136.542 53.3665 132.955 51.6601V45.4495C132.955 35.9968 130.047 27.7105 124.653 21.4938C119.275 15.2942 111.648 11.4119 102.66 10.3514C100.86 10.0614 99.0648 10 97.3735 10H40.5813C38.6443 10 36.7563 10.1363 34.9204 10.4142C26.0127 11.5382 18.4736 15.445 13.1668 21.6382C7.85429 27.8382 5 36.0697 5 45.4495V58.0033C5 60.2484 6.80432 62.0684 9.03007 62.0684C11.2558 62.0684 13.0601 60.2484 13.0601 58.0033V45.4495C13.0601 37.7562 15.3802 31.4881 19.2649 26.9546C23.1445 22.4269 28.8053 19.3696 35.9649 18.4759C36.0015 18.4714 36.0381 18.4663 36.0745 18.4607ZM130.145 76.411C129.76 76.2878 129.35 76.2213 128.925 76.2213H116.557C111.47 76.2213 107.305 72.5318 106.942 68.2063L106.938 68.1578C106.819 66.9192 106.977 65.7122 107.364 64.5976C107.82 63.4144 108.517 62.3479 109.396 61.4675C109.42 61.4433 109.444 61.4187 109.468 61.3939C111.035 59.7436 113.191 58.7805 115.61 58.7805H128.594C129.917 58.858 130.94 59.9485 130.94 61.2887V74.5653C130.94 75.296 130.636 75.9525 130.145 76.411Z" fill="url(#paint0_linear_264_25)"/>
<path fill-rule="evenodd" clip-rule="evenodd" d="M23.0335 63.5748C27.9249 59.2446 34.5192 56.748 41.7107 56.748L41.7585 56.748L41.8061 56.748C49.0265 56.748 55.6037 59.3056 60.4689 63.5042L60.4923 63.5245C65.3161 67.7525 68.4736 73.7813 68.4736 80.5666V98.0335C68.4736 98.1227 68.4731 98.2116 68.4721 98.3003C68.4727 98.323 68.4731 98.3457 68.4734 98.3685L68.4736 98.4146V111.258C68.4736 124.935 55.9364 135 41.8061 135C27.6913 135 15.0752 124.949 15.0752 111.258V98.4146C15.0752 98.3762 15.0757 98.3379 15.0768 98.2997C15.0757 98.2112 15.0752 98.1225 15.0752 98.0335V80.5666C15.0752 74.1553 17.814 68.5325 22.1821 64.3623C22.4597 64.0936 22.7436 63.831 23.0335 63.5748ZM60.4135 97.2564V98.0335C60.4135 105.91 52.9626 112.642 41.8061 112.642C30.6436 112.642 23.1353 105.841 23.1353 98.0335V97.2284C28.048 101.247 34.6976 103.496 41.774 103.496C48.8357 103.496 55.4922 101.286 60.4135 97.2564ZM41.7577 64.8781C47.0554 64.8893 51.7358 66.7838 55.0992 69.7096L55.1241 69.7311L55.1497 69.7529C58.4982 72.5702 60.4135 76.4503 60.4135 80.6334C60.4135 83.0453 59.7509 85.2657 58.5868 87.2285C55.7347 91.9527 49.5546 95.3659 41.774 95.3659C34.0191 95.3659 27.8198 91.9068 24.9567 87.2203C23.7958 85.2598 23.1353 83.0423 23.1353 80.6334C23.1353 79.679 23.2352 78.7412 23.4288 77.8275C24.9362 70.8237 32.1122 64.8979 41.7577 64.8781ZM23.8353 115.436C25.9784 121.753 32.8514 126.87 41.8061 126.87C50.763 126.87 57.6093 121.745 59.7282 115.409C54.8553 119.053 48.443 121.081 41.8061 121.081C35.1468 121.081 28.7185 119.071 23.8353 115.436Z" fill="url(#paint1_linear_264_25)"/>
<defs>
<linearGradient id="paint0_linear_264_25" x1="46.4586" y1="6.26866" x2="79.2712" y2="151.729" gradientUnits="userSpaceOnUse">
<stop stop-color="#3E7DFD"/>
<stop offset="0.680776" stop-color="#132373"/>
<stop offset="1" stop-color="#090E53"/>
</linearGradient>
<linearGradient id="paint1_linear_264_25" x1="46.4586" y1="6.26866" x2="79.2712" y2="151.729" gradientUnits="userSpaceOnUse">
<stop stop-color="#3E7DFD"/>
<stop offset="0.680776" stop-color="#132373"/>
<stop offset="1" stop-color="#090E53"/>
</linearGradient>
</defs>
</svg>
