<svg width="144" height="144" viewBox="0 0 144 144" fill="none" xmlns="http://www.w3.org/2000/svg">
<path fill-rule="evenodd" clip-rule="evenodd" d="M70.1845 101.235L57.3086 88.4259L57.2289 88.3242C56.7017 87.6509 56.4401 86.8094 56.4934 85.9579C56.5466 85.1064 56.911 84.3036 57.5181 83.7004C58.1252 83.0971 58.9331 82.735 59.79 82.6821C60.6469 82.6292 61.4937 82.8891 62.1713 83.413L62.2735 83.492L69.1492 90.3151V57.1808C69.1492 56.2526 69.5203 55.3625 70.1808 54.7062C70.8413 54.0499 71.737 53.6812 72.6711 53.6812C73.6051 53.6812 74.5009 54.0499 75.1614 54.7062C75.8219 55.3625 76.1929 56.2527 76.1929 57.1808V90.3151L82.9051 83.6544C83.194 83.3182 83.5448 83.0389 83.9391 82.8321C84.3807 82.6004 84.8667 82.4647 85.3651 82.4339C85.8634 82.4031 86.3627 82.478 86.8297 82.6536C87.2967 82.8291 87.7208 83.1013 88.0738 83.4522C88.4269 83.803 88.7009 84.2245 88.8775 84.6885C89.0542 85.1526 89.1295 85.6487 89.0986 86.1439C89.0676 86.6391 88.931 87.1221 88.6979 87.5608C88.4894 87.9532 88.2081 88.3021 87.8691 88.5894L75.1534 101.211C75.152 101.212 75.1506 101.214 75.1492 101.215C74.9856 101.379 74.8062 101.526 74.6134 101.654L74.551 101.696L74.4054 101.778C74.3011 101.84 74.1936 101.896 74.0834 101.947L73.9483 102.009L73.6772 102.09L73.6631 102.094L73.4494 102.16L73.3425 102.18C72.8929 102.269 72.4303 102.269 71.9807 102.18L71.9 102.165L71.7516 102.123C71.4664 102.055 71.1932 101.945 70.9411 101.796L70.7873 101.714L70.705 101.659C70.5199 101.535 70.3469 101.395 70.1885 101.239L70.1845 101.235Z" fill="url(#paint0_linear_264_18)"/>
<path fill-rule="evenodd" clip-rule="evenodd" d="M58.0773 26.2665C39.1837 26.2665 23.8674 41.3466 23.8674 59.9489C23.8674 60.7248 23.894 61.494 23.9463 62.2559L24.0889 64.3351L22.1965 65.2685C12.8024 69.9019 6.36464 79.4626 6.36464 90.4981C6.36464 106.072 19.1876 118.697 35.0055 118.697H109.79V118.65L113.018 118.695C113.135 118.697 113.252 118.697 113.37 118.697C126.771 118.697 137.635 108.001 137.635 94.8063C137.635 83.4212 129.544 73.8894 118.711 71.4952L114.573 70.5805L116.622 66.9242C117.844 64.7427 118.541 62.2348 118.541 59.5573C118.541 51.1214 111.596 44.2827 103.028 44.2827C99.634 44.2827 96.5034 45.3519 93.952 47.1674L90.81 49.4032L89.1949 45.9333C83.7902 34.3217 71.8859 26.2665 58.0773 26.2665ZM116.155 124.964V124.841C131.766 123.456 144 110.538 144 94.8063C144 81.7421 135.565 70.6236 123.767 66.4317C124.506 64.2708 124.906 61.9581 124.906 59.5573C124.906 47.6605 115.111 38.0162 103.028 38.0162C99.5636 38.0162 96.2832 38.8107 93.3687 40.2245C86.393 28.1507 73.2048 20 58.0773 20C35.6686 20 17.5028 37.8857 17.5028 59.9489C17.5028 60.1799 17.5048 60.4104 17.5087 60.6405C7.04784 66.5954 0 77.7339 0 90.4981C0 109.533 15.6725 124.964 35.0055 124.964H116.155Z" fill="url(#paint1_linear_264_18)"/>
<defs>
<linearGradient id="paint0_linear_264_18" x1="66.5786" y1="52.2314" x2="85.5077" y2="104.807" gradientUnits="userSpaceOnUse">
<stop stop-color="#3E7DFD"/>
<stop offset="0.680776" stop-color="#132373"/>
<stop offset="1" stop-color="#090E53"/>
</linearGradient>
<linearGradient id="paint1_linear_264_18" x1="44.5525" y1="16.8668" x2="66.4962" y2="141.359" gradientUnits="userSpaceOnUse">
<stop stop-color="#3E7DFD"/>
<stop offset="0.680776" stop-color="#132373"/>
<stop offset="1" stop-color="#090E53"/>
</linearGradient>
</defs>
</svg>
