<svg width="212" height="50" viewBox="0 0 212 50" fill="none" xmlns="http://www.w3.org/2000/svg">
<path d="M68.3135 7.01902C68.3135 8.50627 67.8575 9.69741 66.959 10.5858C65.926 11.6389 64.5806 12.1687 62.9319 12.1687C61.3561 12.1687 60.0107 11.63 58.907 10.5679C57.801 9.49035 57.2491 8.16786 57.2491 6.58486C57.2491 5.00187 57.801 3.67937 58.907 2.61069C60.0107 1.53977 61.3561 1.00098 62.9319 1.00098C63.7163 1.00098 64.4643 1.15905 65.178 1.45294C65.8895 1.74906 66.4687 2.14981 66.8883 2.64408L65.9351 3.58364C65.2031 2.73982 64.2066 2.32348 62.9319 2.32348C61.7825 2.32348 60.786 2.71533 59.94 3.50571C59.1031 4.29832 58.6835 5.3247 58.6835 6.58486C58.6835 7.84502 59.1031 8.88031 59.94 9.67292C60.786 10.4544 61.7825 10.8552 62.9319 10.8552C64.1519 10.8552 65.178 10.4544 65.9876 9.66402C66.5212 9.1408 66.8245 8.41944 66.9043 7.4977H62.9319V6.21082H68.2315C68.2953 6.48913 68.3135 6.75852 68.3135 7.01902Z" fill="black" stroke="black" stroke-width="0.16" stroke-miterlimit="10"/>
<path d="M76.7218 2.55502H71.7437V5.93919H76.2315V7.22607H71.7437V10.6102H76.7218V11.9216H70.3345V1.24365H76.7218V2.55502Z" fill="black" stroke="black" stroke-width="0.16" stroke-miterlimit="10"/>
<path d="M82.6552 11.9216H81.2459V2.55502H78.1925V1.24365H85.7109V2.55502H82.6552V11.9216Z" fill="black" stroke="black" stroke-width="0.16" stroke-miterlimit="10"/>
<path d="M91.1527 11.9216V1.24365H92.5597V11.9216H91.1527Z" fill="black" stroke="black" stroke-width="0.16" stroke-miterlimit="10"/>
<path d="M98.7939 11.9216H97.396V2.55502H94.3312V1.24365H101.859V2.55502H98.7939V11.9216Z" fill="black" stroke="black" stroke-width="0.16" stroke-miterlimit="10"/>
<path d="M116.094 10.5501C115.015 11.63 113.679 12.1687 112.085 12.1687C110.482 12.1687 109.146 11.63 108.067 10.5501C106.991 9.47254 106.455 8.15004 106.455 6.58486C106.455 5.01968 106.991 3.69718 108.067 2.61959C109.146 1.53977 110.482 1.00098 112.085 1.00098C113.67 1.00098 115.006 1.53977 116.085 2.6285C117.17 3.71499 117.706 5.02859 117.706 6.58486C117.706 8.15004 117.17 9.47254 116.094 10.5501ZM109.109 9.65511C109.921 10.4544 110.908 10.8552 112.085 10.8552C113.253 10.8552 114.249 10.4544 115.052 9.65511C115.861 8.85582 116.272 7.82944 116.272 6.58486C116.272 5.34029 115.861 4.31391 115.052 3.51462C114.249 2.71533 113.253 2.31457 112.085 2.31457C110.908 2.31457 109.921 2.71533 109.109 3.51462C108.3 4.31391 107.889 5.34029 107.889 6.58486C107.889 7.82944 108.3 8.85582 109.109 9.65511Z" fill="black" stroke="black" stroke-width="0.16" stroke-miterlimit="10"/>
<path d="M119.684 11.9216V1.24365H121.395L126.713 9.54824H126.774L126.713 7.49547V1.24365H128.12V11.9216H126.651L121.082 3.20736H121.021L121.082 5.26904V11.9216H119.684Z" fill="black" stroke="black" stroke-width="0.16" stroke-miterlimit="10"/>
<path d="M106.105 27.5161C101.82 27.5161 98.3196 30.6999 98.3196 35.0927C98.3196 39.4498 101.82 42.667 106.105 42.667C110.399 42.667 113.899 39.4498 113.899 35.0927C113.899 30.6999 110.399 27.5161 106.105 27.5161ZM106.105 39.6836C103.754 39.6836 101.731 37.7889 101.731 35.0927C101.731 32.3609 103.754 30.4996 106.105 30.4996C108.456 30.4996 110.488 32.3609 110.488 35.0927C110.488 37.7889 108.456 39.6836 106.105 39.6836ZM89.1182 27.5161C84.8243 27.5161 81.333 30.6999 81.333 35.0927C81.333 39.4498 84.8243 42.667 89.1182 42.667C93.4099 42.667 96.9035 39.4498 96.9035 35.0927C96.9035 30.6999 93.4099 27.5161 89.1182 27.5161ZM89.1182 39.6836C86.7649 39.6836 84.7354 37.7889 84.7354 35.0927C84.7354 32.3609 86.7649 30.4996 89.1182 30.4996C91.4693 30.4996 93.492 32.3609 93.492 35.0927C93.492 37.7889 91.4693 39.6836 89.1182 39.6836ZM68.905 29.8383V33.0577H76.7791C76.5488 34.8567 75.9331 36.1792 74.989 37.1009C73.8397 38.2141 72.0496 39.4498 68.905 39.4498C64.0592 39.4498 60.2646 35.6315 60.2646 30.9003C60.2646 26.1692 64.0592 22.3508 68.905 22.3508C71.5251 22.3508 73.4315 23.3505 74.8385 24.6463L77.1622 22.3775C75.1943 20.543 72.5764 19.1336 68.905 19.1336C62.2599 19.1336 56.6753 24.4125 56.6753 30.9003C56.6753 37.3881 62.2599 42.667 68.905 42.667C72.4966 42.667 75.1942 41.5182 77.315 39.363C79.4882 37.2412 80.1655 34.2578 80.1655 31.8488C80.1655 31.1007 80.1016 30.4127 79.9876 29.8383H68.905ZM151.56 32.3341C150.919 30.6398 148.942 27.5161 144.915 27.5161C140.924 27.5161 137.601 30.5864 137.601 35.0927C137.601 39.3363 140.89 42.667 145.298 42.667C148.862 42.667 150.919 40.5452 151.765 39.3095L149.12 37.5885C148.237 38.8487 147.035 39.6836 145.298 39.6836C143.571 39.6836 142.333 38.911 141.54 37.3881L151.918 33.1958L151.56 32.3341ZM140.979 34.8567C140.89 31.9356 143.302 30.4395 145.031 30.4395C146.385 30.4395 147.535 31.1007 147.918 32.0469L140.979 34.8567ZM132.543 42.2061H135.955V19.9418H132.543V42.2061ZM126.957 29.2038H126.843C126.076 28.3177 124.615 27.5161 122.763 27.5161C118.877 27.5161 115.324 30.8469 115.324 35.1172C115.324 39.363 118.877 42.667 122.763 42.667C124.615 42.667 126.076 41.8588 126.843 40.946H126.957V42.0325C126.957 44.9291 125.372 46.4853 122.815 46.4853C120.731 46.4853 119.438 45.0159 118.905 43.7802L115.938 44.9892C116.793 46.9974 119.057 49.4688 122.815 49.4688C126.815 49.4688 130.19 47.1711 130.19 41.5805V27.977H126.957V29.2038ZM123.055 39.6836C120.704 39.6836 118.736 37.7622 118.736 35.1172C118.736 32.4477 120.704 30.4996 123.055 30.4996C125.372 30.4996 127.198 32.4477 127.198 35.1172C127.198 37.7622 125.372 39.6836 123.055 39.6836ZM167.531 19.9418H159.372V42.2061H162.774V33.7702H167.531C171.31 33.7702 175.016 31.1007 175.016 26.8549C175.016 22.6113 171.301 19.9418 167.531 19.9418ZM167.62 30.6732H162.774V23.0388H167.62C170.161 23.0388 171.611 25.0982 171.611 26.8549C171.611 28.5782 170.161 30.6732 167.62 30.6732ZM188.652 27.4738C186.194 27.4738 183.638 28.5336 182.586 30.8825L185.606 32.1182C186.256 30.8825 187.45 30.4818 188.714 30.4818C190.479 30.4818 192.269 31.517 192.296 33.3449V33.5787C191.681 33.2314 190.363 32.7171 188.741 32.7171C185.489 32.7171 182.176 34.4648 182.176 37.7266C182.176 40.71 184.839 42.6314 187.834 42.6314C190.123 42.6314 191.386 41.6228 192.18 40.4495H192.296V42.1705H195.582V33.6299C195.582 29.6825 192.563 27.4738 188.652 27.4738ZM188.242 39.6747C187.129 39.6747 185.578 39.1359 185.578 37.7889C185.578 36.0656 187.512 35.4044 189.186 35.4044C190.684 35.4044 191.386 35.7272 192.296 36.1525C192.029 38.2141 190.212 39.6747 188.242 39.6747ZM207.554 27.9614L203.643 37.613H203.527L199.484 27.9614H195.815L201.89 41.4491L198.424 48.9544H201.979L211.34 27.9614H207.554ZM176.885 42.2061H180.297V19.9418H176.885V42.2061Z" fill="black"/>
<path d="M0.846019 2.19806C0.31013 2.74576 0 3.59848 0 4.7028V44.0928C0 45.1971 0.31013 46.0498 0.846019 46.5975L0.978282 46.7178L23.586 24.6538V24.1329L0.978282 2.06893L0.846019 2.19806Z" fill="url(#paint0_linear_3111_4813)"/>
<path d="M31.1142 32.0142L23.5867 24.6558V24.1348L31.1233 16.7765L31.2921 16.8722L40.2175 21.8305C42.7647 23.2376 42.7647 25.5531 40.2175 26.9691L31.2921 31.9184L31.1142 32.0142Z" fill="url(#paint1_linear_3111_4813)"/>
<path d="M31.289 31.9221L23.5836 24.399L0.843628 46.6032C1.68965 47.4715 3.06928 47.5761 4.63818 46.7078L31.289 31.9221Z" fill="url(#paint2_linear_3111_4813)"/>
<path d="M31.289 16.8792L4.63818 2.09351C3.06928 1.23411 1.68965 1.33875 0.843628 2.20706L23.5836 24.4023L31.289 16.8792Z" fill="url(#paint3_linear_3111_4813)"/>
<defs>
<linearGradient id="paint0_linear_3111_4813" x1="21.5787" y1="44.503" x2="-8.30464" y2="13.8956" gradientUnits="userSpaceOnUse">
<stop stop-color="#00A0FF"/>
<stop offset="0.0066" stop-color="#00A1FF"/>
<stop offset="0.2601" stop-color="#00BEFF"/>
<stop offset="0.5122" stop-color="#00D2FF"/>
<stop offset="0.7604" stop-color="#00DFFF"/>
<stop offset="1" stop-color="#00E3FF"/>
</linearGradient>
<linearGradient id="paint1_linear_3111_4813" x1="43.5343" y1="24.3928" x2="-0.608153" y2="24.3928" gradientUnits="userSpaceOnUse">
<stop stop-color="#FFE000"/>
<stop offset="0.4087" stop-color="#FFBD00"/>
<stop offset="0.7754" stop-color="#FFA500"/>
<stop offset="1" stop-color="#FF9C00"/>
</linearGradient>
<linearGradient id="paint2_linear_3111_4813" x1="27.099" y1="20.3093" x2="-13.4252" y2="-21.1969" gradientUnits="userSpaceOnUse">
<stop stop-color="#FF3A44"/>
<stop offset="1" stop-color="#C31162"/>
</linearGradient>
<linearGradient id="paint3_linear_3111_4813" x1="-4.88049" y1="59.7114" x2="13.2154" y2="41.1772" gradientUnits="userSpaceOnUse">
<stop stop-color="#32A071"/>
<stop offset="0.0685" stop-color="#2DA771"/>
<stop offset="0.4762" stop-color="#15CF74"/>
<stop offset="0.8009" stop-color="#06E775"/>
<stop offset="1" stop-color="#00F076"/>
</linearGradient>
</defs>
</svg>
