<svg width="191" height="56" viewBox="0 0 191 56" fill="none" xmlns="http://www.w3.org/2000/svg">
<g clip-path="url(#clip0_3104_898)">
<path d="M183.126 56.0002H7.67405C3.81489 56.0002 0.671875 52.8672 0.671875 49.0201V7.05976C0.671875 3.21273 3.81489 0.0795898 7.67405 0.0795898H183.126C186.985 0.0795898 190.128 3.21273 190.128 7.05976V49.0201C190.128 52.8672 186.985 56.0002 183.126 56.0002Z" fill="black"/>
<path d="M183.126 0H7.67405C3.81489 0 0.671875 3.13314 0.671875 6.98016V48.9405C0.671875 52.7876 3.81489 55.9206 7.67405 55.9206H183.126C186.985 55.9206 190.128 52.7876 190.128 48.9405V6.98016C190.128 3.13314 186.985 0 183.126 0ZM183.126 1.11048C186.388 1.11048 189.014 3.72805 189.014 6.98016V48.9405C189.014 52.1926 186.388 54.8101 183.126 54.8101H7.67405C4.41167 54.8101 1.78585 52.1926 1.78585 48.9405V6.98016C1.78585 3.72805 4.41167 1.11048 7.67405 1.11048H183.126Z" fill="#A6A6A6"/>
<path d="M150.741 41.9987H153.366V24.5087H150.741V41.9987ZM174.334 30.8147L171.349 38.3897H171.269L168.167 30.8147H165.341L169.997 41.4039L167.331 47.3133H170.076L177.277 30.8147H174.373H174.334ZM159.493 40.0158C158.618 40.0158 157.425 39.5795 157.425 38.5484C157.425 37.2 158.897 36.6843 160.21 36.6843C161.363 36.6843 161.92 36.9223 162.597 37.2792C162.398 38.9053 161.006 40.0554 159.493 40.0554V40.0158ZM159.812 30.4181C157.902 30.4181 155.953 31.2509 155.157 33.1149L157.464 34.0668C157.942 33.1149 158.897 32.7977 159.852 32.7977C161.204 32.7977 162.597 33.5909 162.597 35.0582V35.2566C162.12 34.979 161.124 34.5824 159.852 34.5824C157.345 34.5824 154.798 35.9705 154.798 38.5087C154.798 40.8486 156.867 42.3557 159.175 42.3557C160.926 42.3557 161.92 41.5625 162.517 40.6504H162.597V41.9987H165.143V35.2962C165.143 32.2028 162.836 30.4577 159.812 30.4577V30.4181ZM143.619 32.9167H139.879V26.928H143.619C145.569 26.928 146.682 28.554 146.682 29.9421C146.682 31.2906 145.569 32.9563 143.619 32.9563V32.9167ZM143.539 24.4691H137.254V41.9591H139.879V35.3359H143.539C146.444 35.3359 149.309 33.2339 149.309 29.9025C149.309 26.571 146.444 24.4691 143.539 24.4691ZM109.324 39.9762C107.534 39.9762 105.983 38.4691 105.983 36.4067C105.983 34.3048 107.494 32.758 109.324 32.758C111.115 32.758 112.507 34.3048 112.507 36.4067C112.507 38.4691 111.115 39.9762 109.324 39.9762ZM112.348 31.7666H112.269C111.672 31.0526 110.558 30.4181 109.126 30.4181C106.142 30.4181 103.397 33.0357 103.397 36.4067C103.397 39.7382 106.142 42.3161 109.126 42.3161C110.558 42.3161 111.672 41.6815 112.269 40.9676H112.348V41.8401C112.348 44.1008 111.115 45.3302 109.165 45.3302C107.574 45.3302 106.579 44.1801 106.142 43.2282L103.874 44.1801C104.511 45.7666 106.261 47.7099 109.165 47.7099C112.229 47.7099 114.855 45.9252 114.855 41.5229V30.8543H112.348V31.8062V31.7666ZM116.645 41.9591H119.271V24.4691H116.645V41.9591ZM123.13 36.2085C123.05 33.9081 124.92 32.7183 126.233 32.7183C127.268 32.7183 128.143 33.2339 128.461 33.9875L123.13 36.2085ZM131.286 34.2254C130.808 32.877 129.257 30.4577 126.193 30.4577C123.13 30.4577 120.544 32.877 120.544 36.4067C120.544 39.7382 123.09 42.3557 126.472 42.3557C129.217 42.3557 130.808 40.69 131.445 39.7382L129.416 38.3897C128.74 39.3813 127.824 40.0158 126.472 40.0158C125.119 40.0158 124.204 39.4209 123.568 38.2311L131.564 34.9394L131.286 34.2651V34.2254ZM67.7094 32.282V34.8204H73.7567C73.5577 36.2481 73.1201 37.2792 72.3643 37.9932C71.4889 38.8657 70.0964 39.8572 67.6696 39.8572C63.9298 39.8572 61.0255 36.843 61.0255 33.1547C61.0255 29.4266 63.9298 26.452 67.6696 26.452C69.6987 26.452 71.1707 27.2453 72.2449 28.2367L74.0352 26.452C72.5234 25.0243 70.4943 23.9138 67.6696 23.9138C62.5771 23.9138 58.2803 28.0781 58.2803 33.1547C58.2803 38.2311 62.5771 42.3954 67.6696 42.3954C70.4148 42.3954 72.5234 41.4833 74.1546 39.8175C75.8256 38.1518 76.3427 35.8119 76.3427 33.9081C76.3427 33.3133 76.3029 32.7977 76.2233 32.3218H67.7094V32.282ZM83.2653 40.0158C81.475 40.0158 79.8836 38.5087 79.8836 36.4067C79.8836 34.2651 81.4352 32.7977 83.2653 32.7977C85.0557 32.7977 86.647 34.2651 86.647 36.4067C86.647 38.5087 85.0954 40.0158 83.2653 40.0158ZM83.2653 30.4577C79.9631 30.4577 77.2578 32.9563 77.2578 36.4067C77.2578 39.8175 79.9631 42.3557 83.2653 42.3557C86.5675 42.3557 89.2728 39.8175 89.2728 36.4067C89.2728 32.9563 86.5675 30.4577 83.2653 30.4577ZM96.3546 40.0158C94.5642 40.0158 92.9729 38.5087 92.9729 36.4067C92.9729 34.2651 94.5245 32.7977 96.3546 32.7977C98.1449 32.7977 99.7364 34.2651 99.7364 36.4067C99.7364 38.5087 98.1847 40.0158 96.3546 40.0158ZM96.3546 30.4577C93.0524 30.4577 90.3471 32.9563 90.3471 36.4067C90.3471 39.8175 93.0524 42.3557 96.3546 42.3557C99.6568 42.3557 102.362 39.8175 102.362 36.4067C102.362 32.9563 99.6568 30.4577 96.3546 30.4577Z" fill="white"/>
<path fill-rule="evenodd" clip-rule="evenodd" d="M15.4321 45.3322L15.3127 45.2132C14.9149 44.777 14.6763 44.1424 14.6763 43.2699V43.2301V12.692C14.6763 11.7401 14.9548 11.0659 15.4321 10.6296L32.8182 27.961L15.4321 45.2925V45.3322Z" fill="url(#paint0_linear_3104_898)"/>
<path fill-rule="evenodd" clip-rule="evenodd" d="M38.7063 33.9099L45.5891 30.0232C46.2257 29.6663 46.6633 29.1903 46.9021 28.7145C46.7031 29.1903 46.2654 29.6267 45.5891 30.0232L38.7063 33.9099ZM38.587 33.791L32.7783 28.0006L38.587 22.2102L45.5891 26.1763C46.4643 26.6917 46.9816 27.3264 47.0612 28.0006C46.9816 28.6748 46.4643 29.3093 45.5891 29.8249L38.587 33.791Z" fill="url(#paint1_linear_3104_898)"/>
<path fill-rule="evenodd" clip-rule="evenodd" d="M16.6249 46.0052H16.5852H16.5453H16.5055H16.4658H16.4259H16.3861H16.3464H16.3067H16.2668H16.227H16.1873H16.1474H16.1077H16.0679H16.0282H15.9883H15.9485H15.9088H15.8689C15.8292 46.0052 15.7894 45.9656 15.7497 45.9656L15.67 45.926C15.6303 45.926 15.5904 45.8862 15.5507 45.8862C15.4313 45.807 15.3119 45.7674 15.2324 45.6484C15.3119 45.7276 15.4313 45.807 15.5507 45.8862C15.5904 45.926 15.6303 45.926 15.67 45.926L15.7497 45.9656C15.7894 45.9656 15.8292 46.0052 15.8689 46.0052H15.9088H15.9485H15.9883H16.0282H16.0679H16.1077H16.1474H16.1873H16.227H16.2668H16.3067H16.3464H16.3861H16.4259H16.4658H16.5055H16.5453H16.5852H16.6249ZM16.6646 45.807C16.1873 45.807 15.7497 45.6484 15.4313 45.3707L32.8173 28.0393L38.626 33.8297L18.2561 45.3707C17.6991 45.688 17.1421 45.8466 16.6646 45.8466V45.807ZM15.4313 45.569C15.3915 45.5294 15.3518 45.5294 15.3518 45.4897L15.4313 45.569Z" fill="url(#paint2_linear_3104_898)"/>
<path fill-rule="evenodd" clip-rule="evenodd" d="M32.8177 27.9999L15.4316 10.6684C15.75 10.3907 16.1876 10.2321 16.665 10.2321C17.1425 10.2321 17.6596 10.3907 18.2565 10.708L38.6263 22.2491L32.8177 28.0395V27.9999ZM18.2565 10.4701C17.6995 10.1528 17.1425 9.99414 16.665 9.99414C17.1425 9.99414 17.6596 10.1528 18.2565 10.4701Z" fill="url(#paint3_linear_3104_898)"/>
<path d="M16.7847 46.0047C17.2223 45.9651 17.6998 45.8461 18.2169 45.5288C17.6998 45.8065 17.2223 45.9651 16.7847 46.0047Z" fill="black"/>
<path fill-rule="evenodd" clip-rule="evenodd" d="M15.3127 45.4511C14.9149 45.0147 14.6763 44.3406 14.6763 43.468V43.2698C14.6763 44.1423 14.9149 44.8165 15.3127 45.2527L15.4321 45.3717L15.3127 45.4907V45.4511Z" fill="url(#paint4_linear_3104_898)"/>
<path fill-rule="evenodd" clip-rule="evenodd" d="M38.7463 33.9094L38.627 33.7904L45.6291 29.8243C46.5044 29.3087 47.0215 28.6742 47.1012 28C47.1012 28.238 47.0614 28.4759 46.9421 28.7139C46.743 29.1899 46.3054 29.6261 45.6291 30.0227L38.7463 33.9094Z" fill="url(#paint5_linear_3104_898)"/>
<path d="M47.061 27.9993C47.061 27.2855 46.5835 26.532 45.5889 25.9768C46.5835 26.532 47.061 27.2459 47.061 27.9993Z" fill="#404040"/>
<path fill-rule="evenodd" clip-rule="evenodd" d="M47.0611 27.9993C46.9815 27.3252 46.4643 26.6906 45.589 26.175L38.5869 22.2091L38.7063 22.0901L45.589 25.9768C46.5836 26.532 47.0611 27.2459 47.0611 27.9993Z" fill="url(#paint6_linear_3104_898)"/>
<path fill-rule="evenodd" clip-rule="evenodd" d="M38.5864 22.2095L18.2165 10.6684C17.6595 10.3511 17.1026 10.1924 16.6251 10.1924C16.1477 10.1924 15.7101 10.3511 15.3917 10.6287L15.2725 10.5097C15.3122 10.4701 15.352 10.4304 15.3917 10.4304C15.7101 10.1528 16.1477 9.99414 16.6251 9.99414C17.1026 9.99414 17.6197 10.1528 18.2165 10.4701L38.7058 22.0905L38.5864 22.2095Z" fill="url(#paint7_linear_3104_898)"/>
<path d="M61.7026 13.9609C61.7026 15.2697 61.4638 16.3802 60.9068 17.1734H65.1639V10.8278H61.7026V13.9609ZM59.7531 19.9892H58.7188V17.1734H59.5542C60.2703 16.5388 60.6283 15.4681 60.6283 13.9609V9.79663H66.2381V17.1734H67.193V19.9892H66.1585V18.2045H59.7531V19.9892Z" fill="white"/>
<path d="M61.7022 13.96H61.543V14.0791C61.543 15.3482 61.2645 16.3397 60.7473 17.0931L60.5882 17.3311H65.243V10.7079H61.5033V13.96H61.6624H61.8215V10.9855H65.0044V17.0535H60.9064V17.2121L61.0258 17.2915C61.5828 16.4587 61.8613 15.4274 61.8613 14.1187V13.9997H61.7022V13.96ZM59.7527 19.9883V19.8297H58.8775V17.2915H59.5936L59.6333 17.2519C60.3892 16.6173 60.7473 15.5068 60.7473 14.0393V13.96V9.95438H66.0784V17.3311H67.0333V19.8693H66.2774V18.0848H59.5936V19.9883H59.7527H59.9118V18.3624H65.999V20.147H67.3118V17.0535H66.3569V9.67676H60.4688V13.96V14.0393C60.4688 15.5068 60.1107 16.4983 59.4345 17.0535L59.5139 17.1725V17.0139H58.5591V20.1073H59.8721V19.9487H59.7129L59.7527 19.9883Z" fill="white"/>
<path d="M70.2552 16.4189C70.8918 17.0535 71.6477 17.3708 72.5628 17.3708C73.4779 17.3708 74.2338 17.0535 74.8305 16.4189C75.4671 15.7844 75.7854 14.9912 75.7854 13.9997C75.7854 13.0082 75.4671 12.215 74.8305 11.5804C74.194 10.9459 73.438 10.6286 72.5628 10.6286C71.6477 10.6286 70.8918 10.9459 70.2552 11.5804C69.6187 12.215 69.3005 13.0082 69.3005 13.9997C69.3005 14.9912 69.6187 15.7844 70.2552 16.4189ZM75.6263 17.1329C74.7908 17.9658 73.7564 18.402 72.5231 18.402C71.2897 18.402 70.2552 17.9658 69.4197 17.1329C68.5843 16.3 68.1865 15.2292 68.1865 14.0393C68.1865 12.8099 68.5843 11.7787 69.4197 10.9459C70.2552 10.113 71.2897 9.67676 72.5231 9.67676C73.7564 9.67676 74.7908 10.113 75.5865 10.9459C76.422 11.7787 76.8199 12.8496 76.8199 14.0393C76.8199 15.2688 76.422 16.3 75.5865 17.1329H75.6263Z" fill="white"/>
<path d="M70.2554 16.42L70.136 16.4994C70.7725 17.1735 71.608 17.4909 72.5231 17.4909C73.4382 17.4909 74.2737 17.1735 74.9102 16.4994C75.5468 15.8251 75.9048 14.9923 75.9048 14.0008C75.9048 13.0092 75.5866 12.1367 74.9102 11.5021C74.2737 10.8676 73.4382 10.5106 72.5231 10.5106C71.5682 10.5106 70.7725 10.8279 70.136 11.5021C69.4994 12.1764 69.1414 13.0092 69.1414 14.0008C69.1414 14.9923 69.4597 15.8648 70.136 16.4994L70.2554 16.42L70.3746 16.3406C69.7779 15.7458 69.4994 14.9923 69.4994 14.0404C69.4994 13.0886 69.8176 12.335 70.3746 11.7401C70.9715 11.1452 71.6876 10.8279 72.5629 10.8279C73.4382 10.8279 74.1543 11.1452 74.7511 11.7401C75.3478 12.335 75.6263 13.0886 75.6662 14.0404C75.6662 14.9923 75.3478 15.7458 74.7511 16.3406C74.1543 16.9356 73.4382 17.2529 72.5629 17.2529C71.6876 17.2529 70.9715 16.9356 70.3746 16.3406L70.2554 16.42ZM75.6263 17.1339L75.5069 17.0546C74.7113 17.8875 73.7167 18.284 72.5231 18.284C71.3295 18.284 70.3349 17.8875 69.5392 17.0546C68.7436 16.2218 68.3457 15.2301 68.3457 14.0404C68.3457 12.8506 68.7436 11.8591 69.5392 11.0262C70.3349 10.1934 71.3295 9.79676 72.5231 9.79676C73.7167 9.79676 74.7113 10.1934 75.5069 11.0262C76.3027 11.8591 76.7005 12.8506 76.7005 14.0404C76.7005 15.2301 76.3027 16.2218 75.5069 17.0546L75.6263 17.1339L75.7457 17.2132C76.5812 16.3406 77.0188 15.2699 77.0188 14.0008C77.0188 12.7316 76.5812 11.6608 75.7457 10.7883C74.8704 9.91575 73.836 9.47949 72.5629 9.47949C71.2898 9.47949 70.2155 9.91575 69.38 10.7883C68.5446 11.6608 68.1069 12.7316 68.1069 14.0008C68.1069 15.2699 68.5446 16.3406 69.38 17.2132C70.2155 18.0857 71.2898 18.522 72.5629 18.522C73.836 18.522 74.9102 18.0857 75.7457 17.2132L75.6263 17.1339Z" fill="white"/>
<path d="M82.3104 18.4022C81.077 18.4022 80.0427 17.9659 79.2072 17.1331C78.3717 16.3002 77.9341 15.2691 77.9341 13.9999C77.9341 12.7308 78.3717 11.6996 79.2072 10.8668C80.0427 10.0339 81.077 9.59766 82.3104 9.59766C83.5835 9.59766 84.618 10.0736 85.4137 10.9858L84.6577 11.6996C84.1007 10.9858 83.305 10.6288 82.3104 10.6288C81.3954 10.6288 80.5997 10.9461 80.0029 11.541C79.3663 12.1756 79.0481 12.9688 79.0481 13.9603C79.0481 14.9517 79.3663 15.7846 80.0029 16.3796C80.6394 17.0141 81.3954 17.2917 82.3104 17.2917C83.305 17.2917 84.1803 16.8951 84.8965 16.0622L85.6523 16.8158C85.2546 17.2917 84.7771 17.6487 84.2201 17.9263C83.6234 18.2039 83.0265 18.3229 82.3104 18.3229V18.4022Z" fill="white"/>
<path d="M82.3098 18.403V18.2443C81.1164 18.2443 80.1216 17.8477 79.2861 17.0149C78.4905 16.2218 78.0529 15.1905 78.0529 14.0008C78.0529 12.7713 78.4506 11.7798 79.2861 10.9866C80.0819 10.1934 81.0765 9.75711 82.3098 9.75711C83.5432 9.75711 84.5378 10.1934 85.2938 11.0659L85.4131 10.9866L85.3335 10.8676L84.5777 11.5815L84.6572 11.7005L84.7765 11.6211C84.1798 10.8676 83.3443 10.5106 82.3098 10.5106C81.355 10.5106 80.5594 10.8279 79.883 11.4625C79.2066 12.097 78.8884 12.9696 78.8884 14.0008C78.8884 15.0319 79.2066 15.8648 79.883 16.539C80.5195 17.1735 81.355 17.4909 82.3098 17.4909C83.3443 17.4909 84.2593 17.0546 85.0153 16.2218L84.8959 16.1424L84.7765 16.2218L85.5324 16.9752L85.612 16.8562L85.4926 16.777C85.1347 17.2132 84.6572 17.5701 84.1002 17.8477C83.5432 18.1253 82.9464 18.2443 82.2701 18.2443V18.522C82.9862 18.522 83.6228 18.3633 84.2195 18.0857C84.8163 17.8081 85.3335 17.4115 85.7314 16.9356L85.8109 16.8562L84.9754 16.0234L84.8562 15.9044L84.7765 16.0234C84.1002 16.8166 83.2647 17.1735 82.3098 17.2132C81.4346 17.2132 80.6787 16.9356 80.0819 16.3406C79.4851 15.7458 79.1669 14.9923 79.1669 14.0008C79.1669 13.0092 79.4851 12.2557 80.0819 11.6608C80.6787 11.0659 81.4346 10.7883 82.3098 10.7883C83.2647 10.7883 83.9808 11.1056 84.5378 11.8194L84.6174 11.9384L85.4926 11.1056L85.5723 11.0262L85.4926 10.9073C84.6572 9.95541 83.5829 9.47949 82.3098 9.47949C81.0367 9.47949 79.9625 9.91575 79.0873 10.7883C78.212 11.6608 77.7744 12.7316 77.7744 14.0008C77.7744 15.2699 78.212 16.3804 79.0873 17.2132C79.9625 18.0857 81.0367 18.522 82.3098 18.522V18.3633V18.403Z" fill="white"/>
<path d="M90.0293 18.2045H88.9551V10.8278H86.6079V9.79663H92.3767V10.8278H90.0293V18.2045Z" fill="white"/>
<path d="M90.0289 18.2036V18.0848H89.0741V10.7079H86.7267V9.95438H92.2569V10.7079H89.9096V18.2036H90.0289H90.188V10.9855H92.5354V9.67676H86.4482V10.9855H88.7956V18.3624H90.188V18.2036H90.0289Z" fill="white"/>
<path d="M99.816 9.79663L96.6332 16.8958C96.1956 17.8873 95.559 18.4029 94.6837 18.4029C94.4052 18.4029 94.1267 18.3235 93.8482 18.2045L94.1267 17.213C94.3256 17.332 94.4847 17.3716 94.6837 17.3716C94.9223 17.3716 95.1213 17.332 95.2805 17.213C95.3998 17.1338 95.559 16.9354 95.6783 16.6975L95.9966 16.0233L93.1719 9.83629H94.445L96.5138 14.6748H96.5536L98.5827 9.83629H99.8558L99.816 9.79663Z" fill="white"/>
<path d="M99.816 9.79682L99.6966 9.75717L96.5138 16.8563C96.0762 17.8082 95.4793 18.284 94.6837 18.284C94.445 18.284 94.2062 18.2444 93.888 18.1254L93.8482 18.2444L93.9676 18.284L94.2461 17.2925L94.1267 17.2529L94.0471 17.3719C94.2461 17.4909 94.445 17.5305 94.6837 17.5305C94.9622 17.5305 95.1611 17.4909 95.3601 17.3719C95.5192 17.2529 95.6783 17.0545 95.7977 16.7769L96.1159 16.1028L96.1557 16.0631L93.3707 9.99513H94.3256L96.3944 14.8336H96.6332L98.6621 9.99513H99.8557V9.83648V9.67785H98.503L96.4342 14.5957L96.5535 14.6353V14.4767H96.5138V14.6353L96.6332 14.5957L94.5246 9.67785H92.9331L95.8374 16.0234L95.5589 16.6183C95.4396 16.8563 95.3202 17.0149 95.2407 17.0943C95.1213 17.1735 94.9622 17.2133 94.7235 17.2133C94.5643 17.2133 94.4052 17.1735 94.2461 17.0943L94.0868 17.0149L93.7686 18.165L93.7289 18.284L93.8482 18.3238C94.1665 18.4426 94.445 18.522 94.7235 18.522C95.6386 18.522 96.3547 17.9668 96.832 16.9357L100.094 9.63818H99.8955V9.79682H99.816Z" fill="white"/>
<path d="M101.049 18.2045V9.79663H107.136V18.2045H106.062V10.8278H102.123V18.2045H101.049Z" fill="white"/>
<path d="M101.049 18.2036H101.169V9.95438H106.977V18.0848H106.182V10.7079H101.964V18.0848H101.049V18.2036V18.3624H102.283V10.9855H105.903V18.3624H107.256V9.67676H100.89V18.3624H101.049V18.2036Z" fill="white"/>
<path d="M109.046 18.2045V9.79663H110.16V13.4057H114.337V9.79663H115.451V18.2045H114.337V14.4368H110.16V18.2045H109.046Z" fill="white"/>
<path d="M109.046 18.2036H109.205V9.95438H110.001V13.5634H114.497V9.95438H115.292V18.0848H114.497V14.2773H110.001V18.0848H109.046V18.2036V18.3624H110.279V14.5549H114.218V18.3624H115.571V9.67676H114.218V13.2858H110.279V9.67676H108.927V18.3624H109.046V18.2036Z" fill="white"/>
<path d="M118.873 16.4189C119.51 17.0535 120.266 17.3708 121.181 17.3708C122.096 17.3708 122.852 17.0535 123.448 16.4189C124.085 15.7844 124.403 14.9912 124.403 13.9997C124.403 13.0082 124.085 12.215 123.448 11.5804C122.812 10.9459 122.056 10.6286 121.181 10.6286C120.266 10.6286 119.51 10.9459 118.873 11.5804C118.237 12.215 117.918 13.0082 117.918 13.9997C117.918 14.9912 118.237 15.7844 118.873 16.4189ZM124.244 17.1329C123.409 17.9658 122.374 18.402 121.141 18.402C119.908 18.402 118.873 17.9658 118.038 17.1329C117.202 16.3 116.804 15.2292 116.804 14.0393C116.804 12.8099 117.202 11.7787 118.038 10.9459C118.873 10.113 119.908 9.67676 121.141 9.67676C122.374 9.67676 123.409 10.113 124.204 10.9459C125.04 11.7787 125.438 12.8496 125.438 14.0393C125.438 15.2688 125.04 16.3 124.204 17.1329H124.244Z" fill="white"/>
<path d="M118.873 16.42L118.753 16.4994C119.39 17.1735 120.225 17.4909 121.14 17.4909C122.055 17.4909 122.891 17.1735 123.527 16.4994C124.164 15.8251 124.522 14.9923 124.522 14.0008C124.522 13.0092 124.204 12.1367 123.527 11.5021C122.891 10.8676 122.055 10.5106 121.14 10.5106C120.185 10.5106 119.39 10.8279 118.753 11.5021C118.117 12.1764 117.759 13.0092 117.759 14.0008C117.759 14.9923 118.077 15.8648 118.753 16.4994L118.873 16.42L118.992 16.3406C118.395 15.7458 118.117 14.9923 118.117 14.0404C118.117 13.0886 118.435 12.335 118.992 11.7401C119.589 11.1452 120.305 10.8279 121.18 10.8279C122.055 10.8279 122.772 11.1452 123.368 11.7401C123.965 12.335 124.244 13.0886 124.283 14.0404C124.283 14.9923 123.965 15.7458 123.368 16.3406C122.772 16.9356 122.055 17.2529 121.18 17.2529C120.305 17.2529 119.589 16.9356 118.992 16.3406L118.873 16.42ZM124.244 17.1339L124.124 17.0546C123.329 17.8875 122.334 18.284 121.14 18.284C119.947 18.284 118.952 17.8875 118.156 17.0546C117.361 16.2218 116.963 15.2301 116.963 14.0404C116.963 12.8506 117.361 11.8591 118.156 11.0262C118.952 10.1934 119.947 9.79676 121.14 9.79676C122.334 9.79676 123.329 10.1934 124.124 11.0262C124.92 11.8591 125.318 12.8506 125.318 14.0404C125.318 15.2301 124.92 16.2218 124.124 17.0546L124.244 17.1339L124.363 17.2132C125.198 16.3406 125.636 15.2699 125.636 14.0008C125.636 12.7316 125.198 11.6608 124.363 10.7883C123.488 9.91575 122.453 9.47949 121.18 9.47949C119.907 9.47949 118.833 9.91575 117.997 10.7883C117.162 11.6608 116.724 12.7316 116.724 14.0008C116.724 15.2699 117.162 16.3406 117.997 17.2132C118.833 18.0857 119.907 18.522 121.18 18.522C122.453 18.522 123.527 18.0857 124.363 17.2132L124.244 17.1339Z" fill="white"/>
<path d="M131.007 17.1734H133.196C133.593 17.1734 133.951 17.0148 134.19 16.7372C134.469 16.4595 134.588 16.1423 134.588 15.7853C134.588 15.4283 134.469 15.1111 134.19 14.8334C133.912 14.5558 133.593 14.3972 133.156 14.3972H131.007V17.1338V17.1734ZM131.007 13.4057H132.957C133.355 13.4057 133.673 13.2867 133.951 13.0091C134.19 12.7315 134.31 12.4539 134.31 12.1366C134.31 11.8193 134.19 11.5417 133.951 11.2641C133.713 10.9864 133.394 10.8674 132.997 10.8674H130.968V13.4454L131.007 13.4057ZM129.933 18.2045V9.79663H132.997C133.673 9.79663 134.23 9.99493 134.707 10.4312C135.185 10.8674 135.424 11.4227 135.424 12.0573C135.424 12.4539 135.304 12.8108 135.105 13.1281C134.906 13.4454 134.628 13.6833 134.27 13.8023V13.842C134.668 14.0006 135.026 14.2386 135.304 14.5558C135.583 14.9128 135.702 15.3094 135.702 15.7457C135.702 16.4199 135.463 17.0148 134.946 17.451C134.429 17.8873 133.832 18.1253 133.156 18.1253H129.933V18.2045Z" fill="white"/>
<path d="M131.007 17.1739V17.3325H133.195C133.633 17.3325 134.031 17.1739 134.309 16.8565C134.588 16.5393 134.747 16.1823 134.747 15.8254C134.747 15.4288 134.588 15.0718 134.309 14.7942C134.031 14.477 133.633 14.3183 133.156 14.3183H130.888V17.3722H131.047V17.2135H131.206V14.596H133.195C133.593 14.596 133.912 14.715 134.15 14.9926C134.389 15.2702 134.508 15.5478 134.508 15.8254C134.508 16.1427 134.389 16.4203 134.15 16.6979C133.912 16.9755 133.633 17.0945 133.235 17.0945H131.047V17.2532L131.007 17.1739ZM131.007 13.4062V13.5648H132.957C133.394 13.5648 133.752 13.4062 134.031 13.1285C134.309 12.8509 134.429 12.494 134.429 12.137C134.429 11.7801 134.309 11.4628 134.031 11.1455C133.752 10.8679 133.394 10.7093 132.997 10.7093H130.848V13.5648H131.007V13.4062H131.166V10.9869H133.036C133.394 10.9869 133.673 11.1059 133.872 11.3438C134.111 11.5818 134.19 11.8594 134.19 12.137C134.19 12.4147 134.071 12.6923 133.872 12.9302C133.633 13.1682 133.355 13.2872 132.997 13.2872H131.047V13.4458L131.007 13.4062ZM129.933 18.205H130.092V9.95575H132.997C133.633 9.95575 134.15 10.154 134.628 10.5506C135.065 10.9472 135.304 11.4628 135.304 12.0974C135.304 12.4543 135.225 12.8113 135.026 13.0889C134.827 13.3665 134.588 13.6045 134.27 13.7234L134.19 13.7631V14.0011L134.27 14.0407C134.668 14.1597 134.986 14.3977 135.225 14.715C135.463 15.0322 135.583 15.3892 135.583 15.8254C135.583 16.4599 135.344 17.0152 134.866 17.4515C134.389 17.8878 133.832 18.086 133.156 18.086H129.933V18.2446V18.4033H133.156C133.872 18.4033 134.508 18.1654 135.026 17.6894C135.543 17.2135 135.821 16.5789 135.821 15.8651C135.821 15.3892 135.662 14.953 135.384 14.596C135.105 14.239 134.747 13.9614 134.309 13.8424L134.27 13.9614H134.429V13.9218H134.27L134.309 14.0407C134.668 13.8821 134.986 13.6441 135.185 13.2872C135.423 12.9699 135.503 12.5733 135.503 12.137C135.503 11.4628 135.225 10.8679 134.747 10.392C134.23 9.95575 133.633 9.71777 132.957 9.71777H129.774V18.4033H129.933V18.2446V18.205Z" fill="white"/>
</g>
<defs>
<linearGradient id="paint0_linear_3104_898" x1="31.2666" y1="12.216" x2="7.78793" y2="35.7686" gradientUnits="userSpaceOnUse">
<stop stop-color="#00A0FF"/>
<stop offset="0.0117647" stop-color="#00A1FF"/>
<stop offset="0.258824" stop-color="#00BEFF"/>
<stop offset="0.509804" stop-color="#00D2FF"/>
<stop offset="0.760784" stop-color="#00DFFF"/>
<stop offset="1" stop-color="#00E3FF"/>
</linearGradient>
<linearGradient id="paint1_linear_3104_898" x1="48.1353" y1="28.0006" x2="14.1987" y2="28.0006" gradientUnits="userSpaceOnUse">
<stop stop-color="#FFE000"/>
<stop offset="0.411765" stop-color="#FFBD00"/>
<stop offset="0.780392" stop-color="#FFA500"/>
<stop offset="1" stop-color="#FF9C00"/>
</linearGradient>
<linearGradient id="paint2_linear_3104_898" x1="35.5228" y1="31.2121" x2="3.67591" y2="63.1592" gradientUnits="userSpaceOnUse">
<stop stop-color="#FF3A44"/>
<stop offset="1" stop-color="#C31162"/>
</linearGradient>
<linearGradient id="paint3_linear_3104_898" x1="10.8962" y1="0.277432" x2="25.1341" y2="14.5205" gradientUnits="userSpaceOnUse">
<stop stop-color="#32A071"/>
<stop offset="0.0705882" stop-color="#2DA771"/>
<stop offset="0.478431" stop-color="#15CF74"/>
<stop offset="0.8" stop-color="#06E775"/>
<stop offset="1" stop-color="#00F076"/>
</linearGradient>
<linearGradient id="paint4_linear_3104_898" x1="31.2666" y1="12.2159" x2="7.78793" y2="35.7685" gradientUnits="userSpaceOnUse">
<stop stop-color="#008DE0"/>
<stop offset="0.0117647" stop-color="#008DE0"/>
<stop offset="0.258824" stop-color="#00A7E0"/>
<stop offset="0.509804" stop-color="#00B8E0"/>
<stop offset="0.760784" stop-color="#00C4E0"/>
<stop offset="1" stop-color="#00C7E0"/>
</linearGradient>
<linearGradient id="paint5_linear_3104_898" x1="48.1355" y1="28" x2="14.1989" y2="28" gradientUnits="userSpaceOnUse">
<stop stop-color="#E0C500"/>
<stop offset="0.411765" stop-color="#E0A600"/>
<stop offset="0.780392" stop-color="#E09100"/>
<stop offset="1" stop-color="#E08900"/>
</linearGradient>
<linearGradient id="paint6_linear_3104_898" x1="48.1354" y1="27.9993" x2="14.1987" y2="27.9993" gradientUnits="userSpaceOnUse">
<stop stop-color="#FFE840"/>
<stop offset="0.411765" stop-color="#FFCE40"/>
<stop offset="0.780392" stop-color="#FFBC40"/>
<stop offset="1" stop-color="#FFB540"/>
</linearGradient>
<linearGradient id="paint7_linear_3104_898" x1="10.896" y1="0.277432" x2="25.1341" y2="14.5205" gradientUnits="userSpaceOnUse">
<stop stop-color="#65B895"/>
<stop offset="0.0705882" stop-color="#62BD95"/>
<stop offset="0.478431" stop-color="#50DB97"/>
<stop offset="0.8" stop-color="#44ED98"/>
<stop offset="1" stop-color="#40F498"/>
</linearGradient>
<clipPath id="clip0_3104_898">
<rect width="191" height="56" fill="white"/>
</clipPath>
</defs>
</svg>
