<svg width="40" height="40" viewBox="0 0 40 40" fill="none" xmlns="http://www.w3.org/2000/svg">
<path fill-rule="evenodd" clip-rule="evenodd" d="M20.001 9C17.0136 9 16.6387 9.01306 15.4653 9.06646C14.2943 9.12008 13.4949 9.30548 12.7955 9.57751C12.072 9.85847 11.4583 10.2343 10.8469 10.846C10.235 11.4574 9.85915 12.0711 9.57728 12.7944C9.30457 13.494 9.11894 14.2936 9.06623 15.4642C9.01375 16.6375 9 17.0127 9 20.0001C9 22.9876 9.01329 23.3613 9.06646 24.5347C9.12031 25.7057 9.30571 26.5051 9.57751 27.2045C9.8587 27.928 10.2345 28.5417 10.8462 29.1531C11.4574 29.765 12.0711 30.1418 12.7941 30.4227C13.494 30.6947 14.2936 30.8801 15.4644 30.9338C16.6377 30.9872 17.0124 31.0002 19.9997 31.0002C22.9873 31.0002 23.3611 30.9872 24.5345 30.9338C25.7055 30.8801 26.5058 30.6947 27.2056 30.4227C27.9289 30.1418 28.5417 29.765 29.1529 29.1531C29.7648 28.5417 30.1406 27.928 30.4225 27.2047C30.6929 26.5051 30.8785 25.7055 30.9335 24.5349C30.9862 23.3616 31 22.9876 31 20.0001C31 17.0127 30.9862 16.6377 30.9335 15.4644C30.8785 14.2933 30.6929 13.494 30.4225 12.7946C30.1406 12.0711 29.7648 11.4574 29.1529 10.846C28.541 10.2341 27.9291 9.85824 27.205 9.57751C26.5037 9.30548 25.7039 9.12008 24.5328 9.06646C23.3595 9.01306 22.986 9 19.9976 9H20.001ZM19.6353 10.9792H19.6355L20.0022 10.9793C22.9392 10.9793 23.2873 10.9899 24.4471 11.0426C25.5196 11.0916 26.1017 11.2708 26.4895 11.4214C27.0028 11.6208 27.3688 11.8591 27.7536 12.2441C28.1386 12.6291 28.3769 12.9958 28.5768 13.5091C28.7273 13.8964 28.9068 14.4785 28.9556 15.551C29.0083 16.7106 29.0197 17.0589 29.0197 19.9946C29.0197 22.9302 29.0083 23.2786 28.9556 24.4382C28.9065 25.5107 28.7273 26.0928 28.5768 26.4801C28.3774 26.9934 28.1386 27.3589 27.7536 27.7437C27.3686 28.1287 27.0031 28.3671 26.4895 28.5664C26.1022 28.7177 25.5196 28.8964 24.4471 28.9455C23.2875 28.9982 22.9392 29.0096 20.0022 29.0096C17.0649 29.0096 16.7168 28.9982 15.5572 28.9455C14.4847 28.896 13.9026 28.7168 13.5146 28.5662C13.0013 28.3668 12.6346 28.1285 12.2496 27.7435C11.8646 27.3585 11.6263 26.9927 11.4264 26.4792C11.2759 26.0919 11.0964 25.5098 11.0476 24.4373C10.9949 23.2777 10.9844 22.9293 10.9844 19.9918C10.9844 17.0544 10.9949 16.7079 11.0476 15.5483C11.0967 14.4757 11.2759 13.8937 11.4264 13.5059C11.6258 12.9926 11.8646 12.6259 12.2496 12.2409C12.6346 11.8559 13.0013 11.6175 13.5146 11.4177C13.9024 11.2665 14.4847 11.0877 15.5572 11.0384C16.572 10.9926 16.9652 10.9789 19.0154 10.9766V10.9793C19.2069 10.979 19.4128 10.9791 19.6351 10.9792H19.6352H19.6353ZM24.5527 14.1286C24.5527 13.3996 25.144 12.8091 25.8727 12.8091V12.8086C26.6015 12.8086 27.1928 13.3998 27.1928 14.1286C27.1928 14.8574 26.6015 15.4486 25.8727 15.4486C25.144 15.4486 24.5527 14.8574 24.5527 14.1286ZM20.0003 14.3516C16.8808 14.3517 14.3516 16.881 14.3516 20.0006C14.3516 23.1203 16.8809 25.6485 20.0006 25.6485C23.1203 25.6485 25.6487 23.1203 25.6487 20.0006C25.6487 16.8809 23.12 14.3516 20.0003 14.3516ZM23.6674 20.0026C23.6674 17.9775 22.0256 16.3359 20.0007 16.3359C17.9755 16.3359 16.334 17.9775 16.334 20.0026C16.334 22.0276 17.9755 23.6693 20.0007 23.6693C22.0256 23.6693 23.6674 22.0276 23.6674 20.0026Z" fill="white"/>
<rect x="0.5" y="0.5" width="39" height="39" rx="11.5" stroke="white"/>
</svg>
