<svg width="144" height="144" viewBox="0 0 144 144" fill="none" xmlns="http://www.w3.org/2000/svg">
<path d="M35.8597 137.317C31.9149 137.317 28.9415 134.178 28.9415 130.005V107.853L24.1524 106.222C18.3613 103.773 13.7896 100.259 10.5969 95.8349C7.30991 91.2526 5.52507 85.7931 5.30581 79.6108C4.89806 65.301 4.89806 50.6172 5.30581 35.9314C5.7424 19.7074 19.1729 6.99951 35.8597 6.99951H107.615C115.285 6.99951 123.175 10.5447 129.248 16.6962C135.197 22.7205 138.734 30.4412 138.953 37.9093V38.0346V78.7973C138.734 87.239 135.509 94.9886 129.843 100.575C124.144 106.224 116.381 109.329 107.99 109.329H71.3623C71.0814 109.329 70.893 109.393 70.8295 109.424C69.7967 110.334 41.3392 135.123 39.5217 136.316L39.3332 136.441L39.1139 136.536C37.7368 137.224 36.7367 137.317 35.8597 137.317ZM26.9374 99.222L36.454 102.391V129.095C42.1201 124.356 64.2556 105.215 65.5692 103.991C67.0098 102.547 69.1062 101.732 71.3296 101.732H107.99C121.232 101.732 131.064 92.0044 131.439 78.6045V38.0327C131.064 26.1403 119.261 14.4985 107.582 14.4985H35.8597C23.2735 14.4985 13.1299 24.0063 12.7856 36.1184C12.3779 50.648 12.3779 65.2065 12.7856 79.3602C13.1299 88.6482 17.8882 95.3626 26.9374 99.222ZM70.8603 109.358C70.8295 109.389 70.8295 109.389 70.8603 109.358Z" fill="url(#paint0_linear_264_11)"/>
<path d="M104.61 83.6904L93.1531 55.8881L93.1224 55.8245C92.3396 54.0047 90.524 52.875 88.5506 52.875C86.5792 52.9058 84.7944 54.0991 84.0731 55.9498L72.866 83.7212C72.1466 85.4793 72.991 87.4861 74.7758 88.209C75.2143 88.3652 75.6201 88.4597 76.0587 88.4597C77.405 88.4597 78.7205 87.6442 79.2514 86.2948L82.3191 78.7321H95.1245L98.2557 86.3256C98.975 88.0837 100.979 88.93 102.764 88.209C104.485 87.4881 105.332 85.4485 104.61 83.6904ZM85.106 71.8288L88.643 63.042L92.2742 71.8288H85.106Z" fill="url(#paint1_linear_264_11)"/>
<path d="M67.2311 60.0934C72.1144 54.0055 76.5611 47.1966 78.4075 40.8581H83.7601C85.6699 40.8581 87.2047 39.3198 87.2047 37.4055C87.2047 35.4912 85.6699 33.9529 83.7601 33.9529H66.5733V29.5903C66.5733 27.6761 65.0385 26.1377 63.1286 26.1377C61.2188 26.1377 59.6839 27.6761 59.6839 29.5903V33.9529H42.4972C40.5873 33.9529 39.0525 35.4912 39.0525 37.4055C39.0525 39.3198 40.5873 40.8581 42.4972 40.8581H71.1739C69.4833 45.3132 66.3521 50.0844 62.8459 54.5703C60.5918 51.5264 58.1818 48.0429 56.522 45.5966H48.2883C48.3517 45.7855 53.8928 54.2253 58.3069 59.9989C51.4502 67.7177 44.7205 73.5858 44.5936 73.6803C43.153 74.9353 42.9972 77.1002 44.2185 78.544C44.9071 79.3287 45.8784 79.7373 46.8477 79.7373C47.6305 79.7373 48.4441 79.4559 49.1018 78.9219C49.6019 78.4824 55.9892 72.9593 62.7824 65.3967C66.8214 70.0098 70.5469 73.555 71.6105 74.5902L74.3973 67.6869C72.5221 65.8998 69.8929 63.201 67.2311 60.0934Z" fill="url(#paint2_linear_264_11)"/>
<defs>
<linearGradient id="paint0_linear_264_11" x1="46.4442" y1="3.10945" x2="81.9693" y2="154.116" gradientUnits="userSpaceOnUse">
<stop stop-color="#3E7DFD"/>
<stop offset="0.680776" stop-color="#132373"/>
<stop offset="1" stop-color="#090E53"/>
</linearGradient>
<linearGradient id="paint1_linear_264_11" x1="82.5902" y1="51.8126" x2="93.431" y2="92.4449" gradientUnits="userSpaceOnUse">
<stop stop-color="#3E7DFD"/>
<stop offset="0.680776" stop-color="#132373"/>
<stop offset="1" stop-color="#090E53"/>
</linearGradient>
<linearGradient id="paint2_linear_264_11" x1="53.9504" y1="24.5377" x2="70.4021" y2="85.6562" gradientUnits="userSpaceOnUse">
<stop stop-color="#3E7DFD"/>
<stop offset="0.680776" stop-color="#132373"/>
<stop offset="1" stop-color="#090E53"/>
</linearGradient>
</defs>
</svg>
