<svg width="22" height="22" viewBox="0 0 22 22" fill="none" xmlns="http://www.w3.org/2000/svg">
<path d="M1 11C1 16.523 5.477 21 11 21C16.523 21 21 16.523 21 11C21 5.477 16.523 1 11 1C5.477 1 1 5.477 1 11Z" stroke="#33362E" stroke-width="1.5" stroke-linecap="round" stroke-linejoin="round"/>
<path d="M12.0028 1.05078C12.0028 1.05078 15.0028 5.00078 15.0028 11.0008C15.0028 17.0008 12.0028 20.9508 12.0028 20.9508M10.0028 20.9508C10.0028 20.9508 7.00281 17.0008 7.00281 11.0008C7.00281 5.00078 10.0028 1.05078 10.0028 1.05078M1.63281 14.5008H20.3728M1.63281 7.50078H20.3728" stroke="#33362E" stroke-width="1.5" stroke-linecap="round" stroke-linejoin="round"/>
</svg>
