<svg width="144" height="144" viewBox="0 0 144 144" fill="none" xmlns="http://www.w3.org/2000/svg">
<path d="M6 31.95V117.45C6 119.017 7.29074 120.3 8.86832 120.3H56.4537L61.3585 125.173C61.9035 125.715 62.6206 126 63.395 126H80.6049C81.3794 126 82.0965 125.686 82.6415 125.173L87.5463 120.3H135.132C136.709 120.3 138 119.017 138 117.45V31.95C138 30.3825 136.709 29.1 135.132 29.1H126.527V23.4C126.527 22.1745 125.724 21.0915 124.576 20.6925L109.317 15.648V14.85C109.317 13.2825 108.026 12 106.449 12C90.9596 12 77.6506 21.4335 72.0287 34.8C66.4068 21.4335 53.0978 12 37.6089 12C36.0313 12 34.7405 13.2825 34.7405 14.85V15.648L19.4811 20.6925C18.3051 21.0915 17.5306 22.1745 17.5306 23.4V29.1H8.92569C7.34811 29.1 6.05737 30.3825 6.05737 31.95H6ZM125.379 102.601C126.068 102.06 126.469 101.233 126.469 100.35V34.8H132.206V114.6H86.3129C85.5385 114.6 84.8214 114.913 84.2764 115.426L79.3716 120.3H77.0196C93.1682 96.2745 121.622 102.801 122.884 103.115C123.744 103.314 124.634 103.114 125.351 102.573L125.379 102.601ZM109.259 88.95V21.6615L120.733 25.452V96.987C112.615 95.9325 92.3077 95.22 77.4498 110.667C82.3259 99.5805 93.455 91.8 106.391 91.8C107.969 91.8 109.259 90.5175 109.259 88.95ZM74.8396 49.05C74.8396 32.7195 87.4602 19.2675 103.523 17.814V86.1855C91.4472 87.0975 80.9778 93.7665 74.8396 103.428V49.05ZM40.4198 17.814C56.4824 19.2675 69.103 32.7195 69.103 49.05V103.456C62.9648 93.795 52.4954 87.126 40.4198 86.214V17.814ZM23.2099 25.452L34.6832 21.6615V88.95C34.6832 90.5175 35.9739 91.8 37.5515 91.8C50.4876 91.8 61.6167 99.5805 66.4928 110.667C51.6349 95.22 31.3272 95.9325 23.2099 96.987V25.452ZM11.7366 34.8H17.4733V100.35C17.4733 101.233 17.8748 102.06 18.5632 102.601C19.2516 103.143 20.1695 103.343 21.03 103.115C21.3455 103.029 50.6023 96.2175 66.8944 120.3H64.5424L59.6376 115.426C59.0926 114.885 58.3755 114.6 57.601 114.6H11.7366V34.8Z" fill="url(#paint0_linear_264_22)"/>
<defs>
<linearGradient id="paint0_linear_264_22" x1="46.8398" y1="8.59702" x2="74.738" y2="142.181" gradientUnits="userSpaceOnUse">
<stop stop-color="#3E7DFD"/>
<stop offset="0.680776" stop-color="#132373"/>
<stop offset="1" stop-color="#090E53"/>
</linearGradient>
</defs>
</svg>
