<svg width="40" height="40" viewBox="0 0 40 40" fill="none" xmlns="http://www.w3.org/2000/svg">
<rect x="0.5" y="0.5" width="39" height="39" rx="11.5" stroke="#313330"/>
<path fill-rule="evenodd" clip-rule="evenodd" d="M8 19.7928C8 26.3057 13.3625 31.5869 19.98 31.5869C26.5963 31.5869 31.9601 26.3057 31.9601 19.7928C31.9601 13.28 26.5963 8 19.98 8C13.3625 8 8 13.28 8 19.7928ZM16.0072 29.7455C11.969 28.188 9.10742 24.3202 9.10742 19.793C9.10742 13.889 13.9682 9.10547 19.9646 9.10547C25.9611 9.10547 30.8219 13.889 30.8219 19.793C30.8219 25.6958 25.9611 30.4806 19.9646 30.4806C18.8444 30.4806 17.7652 30.3139 16.7502 30.0032C17.1916 29.2933 17.8538 28.1299 18.0989 27.2015C18.231 26.7013 18.7751 24.6613 18.7751 24.6613C19.1293 25.3257 20.1635 25.889 21.2645 25.889C24.538 25.889 26.8978 22.9244 26.8978 19.241C26.8978 15.7105 23.9708 13.068 20.2046 13.068C15.5196 13.068 13.0315 16.1653 13.0315 19.5366C13.0315 21.1029 13.8784 23.0558 15.2335 23.6773C15.4401 23.7707 15.5504 23.729 15.5979 23.5333C15.6124 23.4734 15.6512 23.3188 15.6976 23.1335C15.7658 22.8611 15.8506 22.5226 15.8994 22.3219C15.9251 22.2133 15.9123 22.121 15.8237 22.0149C15.3746 21.4794 15.0166 20.4941 15.0166 19.5758C15.0166 17.2187 16.8298 14.9375 19.9184 14.9375C22.5862 14.9375 24.4533 16.7261 24.4533 19.2853C24.4533 22.1766 22.9699 24.18 21.04 24.18C19.9749 24.18 19.1768 23.3135 19.4321 22.2486C19.5429 21.7895 19.6911 21.3174 19.8351 20.8584C20.0898 20.0468 20.3316 19.276 20.3316 18.6903C20.3316 17.8693 19.8838 17.1846 18.9586 17.1846C17.8679 17.1846 16.994 18.2937 16.994 19.7804C16.994 20.7265 17.3187 21.3669 17.3187 21.3669C17.3187 21.3669 16.2421 25.8448 16.0457 26.6785C15.8276 27.6032 15.9123 28.9004 16.0072 29.7455Z" fill="#313330"/>
</svg>
