<svg xmlns="http://www.w3.org/2000/svg"><symbol fill="none" id="arrow" viewBox="0 0 12 7"><title>arrow</title><path d="M1 1l5 5 5-5" stroke="#333" stroke-width="2" stroke-linecap="round" stroke-linejoin="round"/></symbol><symbol fill="none" id="cash" viewBox="0 0 144 144"><title>cash</title><path fill-rule="evenodd" clip-rule="evenodd" d="M36.075 18.46a29.76 29.76 0 014.506-.33h56.793c1.558 0 2.883.062 4.079.26.064.01.129.02.194.027 7.251.84 12.999 3.887 16.941 8.43 3.946 4.549 6.307 10.857 6.307 18.602v5.037h-9.096c-4.577 0-8.818 1.79-11.918 4.938a16.805 16.805 0 00-4.082 6.366 17.24 17.24 0 00-1.027 7.652c.77 9.31 8.974 15.761 17.591 15.761h8.532v4.185c0 8.474-2.821 15.228-7.477 19.859-4.66 4.636-11.478 7.46-20.044 7.46H81.598c-2.226 0-4.03 1.82-4.03 4.065s1.804 4.065 4.03 4.065h15.776c10.364 0 19.322-3.452 25.704-9.801 6.387-6.354 9.877-15.292 9.877-25.648v-5.194A10.64 10.64 0 00139 74.565V61.29a10.64 10.64 0 00-6.045-9.629v-6.21c0-9.453-2.908-17.74-8.302-23.956-5.378-6.2-13.005-10.082-21.993-11.143-1.8-.29-3.595-.351-5.286-.351H40.58c-1.937 0-3.825.136-5.66.414-8.908 1.124-16.447 5.031-21.754 11.224C7.854 27.838 5 36.07 5 45.45v12.554c0 2.245 1.804 4.065 4.03 4.065s4.03-1.82 4.03-4.065V45.45c0-7.694 2.32-13.962 6.205-18.495 3.88-4.528 9.54-7.585 16.7-8.48l.11-.014zm94.07 57.951a3.997 3.997 0 00-1.22-.19h-12.368c-5.087 0-9.252-3.69-9.615-8.015l-.004-.048a8.382 8.382 0 01.426-3.56 9.03 9.03 0 012.104-3.204c1.567-1.65 3.723-2.613 6.142-2.613h12.984a2.493 2.493 0 012.346 2.508v13.276c0 .731-.304 1.388-.795 1.846z" fill="url(#paint0_linear_264_25)"/><path fill-rule="evenodd" clip-rule="evenodd" d="M23.034 63.575c4.89-4.33 11.485-6.827 18.677-6.827h.095c7.22 0 13.798 2.558 18.663 6.756l.023.02c4.824 4.228 7.982 10.257 7.982 17.043v17.467a23.662 23.662 0 010 .334v12.89c0 13.677-12.538 23.742-26.668 23.742-14.115 0-26.73-10.051-26.73-23.742V98.3a21.416 21.416 0 010-.266V80.567c0-6.412 2.738-12.034 7.106-16.205.278-.268.562-.531.852-.787zm37.38 33.681v.778c0 7.876-7.451 14.608-18.608 14.608-11.162 0-18.67-6.801-18.67-14.608v-.806c4.912 4.019 11.562 6.268 18.638 6.268 7.062 0 13.718-2.21 18.64-6.24zM41.758 64.878c5.297.011 9.978 1.906 13.341 4.832l.025.021.026.022c3.348 2.817 5.264 6.697 5.264 10.88 0 2.412-.663 4.633-1.827 6.596-2.852 4.724-9.032 8.137-16.813 8.137-7.755 0-13.954-3.46-16.817-8.146-1.161-1.96-1.822-4.178-1.822-6.587 0-.954.1-1.892.294-2.805 1.507-7.004 8.683-12.93 18.329-12.95zm-17.923 50.558c2.143 6.317 9.016 11.434 17.971 11.434 8.957 0 15.803-5.125 17.922-11.461-4.873 3.644-11.285 5.672-17.922 5.672-6.66 0-13.087-2.01-17.97-5.645z" fill="url(#paint1_linear_264_25)"/><defs><linearGradient id="paint0_linear_264_25" x1="46.459" y1="6.269" x2="79.271" y2="151.729" gradientUnits="userSpaceOnUse"><stop stop-color="#3E7DFD"/><stop offset=".681" stop-color="#132373"/><stop offset="1" stop-color="#090E53"/></linearGradient><linearGradient id="paint1_linear_264_25" x1="46.459" y1="6.269" x2="79.271" y2="151.729" gradientUnits="userSpaceOnUse"><stop stop-color="#3E7DFD"/><stop offset=".681" stop-color="#132373"/><stop offset="1" stop-color="#090E53"/></linearGradient></defs></symbol><symbol fill="none" id="cloud" viewBox="0 0 144 144"><title>cloud</title><path fill-rule="evenodd" clip-rule="evenodd" d="M70.184 101.235L57.31 88.425l-.08-.1a3.485 3.485 0 01.29-4.625 3.537 3.537 0 014.653-.287l.102.079 6.875 6.823V57.181c0-.928.371-1.819 1.032-2.475a3.533 3.533 0 012.49-1.025c.934 0 1.83.369 2.49 1.025a3.488 3.488 0 011.032 2.475v33.134l6.712-6.66a3.517 3.517 0 012.46-1.221 3.541 3.541 0 012.709 1.018 3.496 3.496 0 011.025 2.692 3.483 3.483 0 01-1.23 2.445l-12.716 12.622-.004.004a3.46 3.46 0 01-.536.439l-.062.042-.146.082a3.534 3.534 0 01-.322.169l-.135.062-.27.081-.015.004-.214.066-.106.02c-.45.089-.913.089-1.362 0l-.081-.015-.148-.042a2.926 2.926 0 01-.81-.327l-.155-.082-.082-.055a3.553 3.553 0 01-.516-.42l-.004-.004z" fill="url(#paint0_linear_264_18)"/><path fill-rule="evenodd" clip-rule="evenodd" d="M58.077 26.267c-18.893 0-34.21 15.08-34.21 33.682 0 .776.027 1.545.08 2.307l.142 2.08-1.892.933c-9.395 4.633-15.832 14.194-15.832 25.23 0 15.573 12.823 28.198 28.64 28.198h74.785v-.047l3.228.045c.117.002.234.002.352.002 13.401 0 24.265-10.696 24.265-23.89 0-11.386-8.091-20.918-18.924-23.312l-4.138-.915 2.049-3.656a15.015 15.015 0 001.919-7.367c0-8.436-6.945-15.274-15.513-15.274a15.595 15.595 0 00-9.076 2.884l-3.142 2.236-1.615-3.47c-5.405-11.611-17.31-19.666-31.118-19.666zm58.078 98.697v-.123C131.766 123.456 144 110.538 144 94.806c0-13.064-8.435-24.182-20.233-28.374a21.207 21.207 0 001.139-6.875c0-11.897-9.795-21.54-21.878-21.54-3.464 0-6.745.794-9.66 2.207C86.394 28.151 73.206 20 58.079 20c-22.41 0-40.575 17.886-40.575 39.949 0 .23.002.461.006.692C7.048 66.594 0 77.734 0 90.498c0 19.035 15.672 34.466 35.005 34.466h81.15z" fill="url(#paint1_linear_264_18)"/><defs><linearGradient id="paint0_linear_264_18" x1="66.579" y1="52.231" x2="85.508" y2="104.807" gradientUnits="userSpaceOnUse"><stop stop-color="#3E7DFD"/><stop offset=".681" stop-color="#132373"/><stop offset="1" stop-color="#090E53"/></linearGradient><linearGradient id="paint1_linear_264_18" x1="44.553" y1="16.867" x2="66.496" y2="141.359" gradientUnits="userSpaceOnUse"><stop stop-color="#3E7DFD"/><stop offset=".681" stop-color="#132373"/><stop offset="1" stop-color="#090E53"/></linearGradient></defs></symbol><symbol fill="none" id="fb" viewBox="0 0 40 40"><title>fb</title><path d="M21.751 30.51V19.628h3.004l.398-3.75h-3.402l.005-1.876c0-.978.093-1.502 1.498-1.502h1.878V8.75h-3.004c-3.609 0-4.879 1.819-4.879 4.878v2.251H15v3.75h2.25v10.88h4.501z" fill="#fff"/><rect x=".5" y=".5" width="39" height="39" rx="11.5" stroke="#fff"/></symbol><symbol fill="none" id="inst" viewBox="0 0 40 40"><title>inst</title><path fill-rule="evenodd" clip-rule="evenodd" d="M20.001 9c-2.987 0-3.362.013-4.536.066-1.17.054-1.97.24-2.67.512a5.385 5.385 0 00-1.948 1.268 5.4 5.4 0 00-1.27 1.948c-.272.7-.458 1.5-.51 2.67C9.013 16.637 9 17.013 9 20c0 2.988.013 3.361.066 4.535.054 1.17.24 1.97.512 2.67a5.39 5.39 0 001.268 1.948 5.385 5.385 0 001.948 1.27c.7.272 1.5.457 2.67.51 1.174.054 1.548.067 4.536.067 2.987 0 3.361-.013 4.535-.066 1.17-.054 1.97-.24 2.67-.511a5.38 5.38 0 001.948-1.27 5.4 5.4 0 001.27-1.948c.27-.7.456-1.5.51-2.67.053-1.173.067-1.547.067-4.535 0-2.987-.014-3.362-.067-4.536-.055-1.17-.24-1.97-.51-2.67a5.398 5.398 0 00-1.27-1.948 5.377 5.377 0 00-1.948-1.268c-.701-.273-1.501-.458-2.672-.512C23.359 9.013 22.986 9 19.998 9H20zm-.366 1.98h.367c2.937 0 3.285.01 4.445.063 1.073.049 1.655.228 2.043.378.513.2.879.438 1.264.823.385.385.623.752.823 1.265.15.387.33.97.379 2.042.052 1.16.064 1.508.064 4.444 0 2.935-.012 3.284-.064 4.443-.05 1.073-.229 1.655-.38 2.042a3.4 3.4 0 01-.822 1.264 3.4 3.4 0 01-1.265.822c-.387.152-.97.33-2.042.38-1.16.052-1.508.064-4.445.064-2.937 0-3.285-.012-4.445-.065-1.072-.049-1.654-.228-2.042-.379a3.42 3.42 0 01-1.265-.822 3.41 3.41 0 01-.824-1.265c-.15-.387-.33-.97-.378-2.042-.053-1.16-.064-1.508-.064-4.445 0-2.938.01-3.284.064-4.444.049-1.072.228-1.654.378-2.042.2-.513.439-.88.824-1.265a3.414 3.414 0 011.265-.823c.387-.151.97-.33 2.042-.38 1.015-.045 1.408-.06 3.458-.061v.002h.62zm4.918 3.149a1.32 1.32 0 112.64 0 1.32 1.32 0 01-2.64 0zM20 14.352a5.65 5.65 0 10.001 11.298 5.65 5.65 0 000-11.298zm3.667 5.65a3.667 3.667 0 10-7.333 0 3.667 3.667 0 007.333 0z" fill="#fff"/><rect x=".5" y=".5" width="39" height="39" rx="11.5" stroke="#fff"/></symbol><symbol fill="none" id="lang" viewBox="0 0 144 144"><title>lang</title><path d="M35.86 137.317c-3.945 0-6.918-3.139-6.918-7.312v-22.152l-4.79-1.631c-5.79-2.449-10.362-5.963-13.555-10.387C7.31 91.253 5.525 85.793 5.306 79.61a779.965 779.965 0 010-43.68C5.742 19.707 19.173 7 35.86 7h71.755c7.67 0 15.56 3.545 21.633 9.696 5.949 6.024 9.486 13.745 9.705 21.213v40.888c-.219 8.442-3.444 16.192-9.11 21.778-5.699 5.649-13.462 8.754-21.853 8.754H71.362c-.28 0-.469.064-.532.095-1.033.91-29.49 25.699-31.308 26.892l-.189.125-.22.095c-1.376.688-2.376.781-3.253.781zm-8.923-38.095l9.517 3.169v26.704c5.666-4.739 27.802-23.88 29.115-25.104 1.44-1.444 3.537-2.259 5.76-2.259h36.661c13.242 0 23.074-9.728 23.449-23.127V38.032c-.375-11.893-12.178-23.535-23.857-23.535H35.86c-12.587 0-22.73 9.508-23.074 21.62a764.511 764.511 0 000 43.242c.344 9.288 5.102 16.003 14.151 19.862zm43.923 10.136c-.03.031-.03.031 0 0z" fill="url(#paint0_linear_264_11)"/><path d="M104.61 83.69L93.153 55.888l-.03-.063c-.783-1.82-2.599-2.95-4.572-2.95-1.972.03-3.757 1.224-4.478 3.075L72.866 83.72a3.434 3.434 0 001.91 4.488c.438.156.844.25 1.283.25 1.346 0 2.662-.815 3.192-2.164l3.068-7.563h12.805l3.132 7.594a3.455 3.455 0 004.508 1.883c1.721-.72 2.568-2.76 1.846-4.519zM85.106 71.83l3.537-8.787 3.631 8.787h-7.168z" fill="url(#paint1_linear_264_11)"/><path d="M67.231 60.093c4.883-6.088 9.33-12.896 11.177-19.235h5.352a3.44 3.44 0 003.445-3.452 3.44 3.44 0 00-3.445-3.453H66.573V29.59a3.44 3.44 0 00-3.444-3.452 3.44 3.44 0 00-3.445 3.452v4.363H42.497a3.44 3.44 0 00-3.444 3.453 3.44 3.44 0 003.444 3.452h28.677c-1.69 4.455-4.822 9.226-8.328 13.712-2.254-3.044-4.664-6.527-6.324-8.973h-8.234c.064.188 5.605 8.628 10.019 14.402C51.45 67.718 44.72 73.586 44.594 73.68a3.473 3.473 0 00-.376 4.864 3.5 3.5 0 002.63 1.193c.782 0 1.596-.281 2.254-.815.5-.44 6.887-5.963 13.68-13.525 4.04 4.613 7.765 8.158 8.829 9.193l2.786-6.903c-1.875-1.787-4.504-4.486-7.166-7.594z" fill="url(#paint2_linear_264_11)"/><defs><linearGradient id="paint0_linear_264_11" x1="46.444" y1="3.109" x2="81.969" y2="154.116" gradientUnits="userSpaceOnUse"><stop stop-color="#3E7DFD"/><stop offset=".681" stop-color="#132373"/><stop offset="1" stop-color="#090E53"/></linearGradient><linearGradient id="paint1_linear_264_11" x1="82.59" y1="51.813" x2="93.431" y2="92.445" gradientUnits="userSpaceOnUse"><stop stop-color="#3E7DFD"/><stop offset=".681" stop-color="#132373"/><stop offset="1" stop-color="#090E53"/></linearGradient><linearGradient id="paint2_linear_264_11" x1="53.95" y1="24.538" x2="70.402" y2="85.656" gradientUnits="userSpaceOnUse"><stop stop-color="#3E7DFD"/><stop offset=".681" stop-color="#132373"/><stop offset="1" stop-color="#090E53"/></linearGradient></defs></symbol><symbol fill="none" id="learn" viewBox="0 0 144 144"><title>learn</title><path d="M6 31.95v85.5c0 1.567 1.29 2.85 2.868 2.85h47.586l4.904 4.873a2.847 2.847 0 002.037.827h17.21a2.97 2.97 0 002.036-.827l4.905-4.873h47.586c1.577 0 2.868-1.283 2.868-2.85v-85.5c0-1.567-1.291-2.85-2.868-2.85h-8.605v-5.7c0-1.226-.803-2.308-1.951-2.707l-15.259-5.045v-.798c0-1.567-1.291-2.85-2.868-2.85-15.49 0-28.798 9.433-34.42 22.8C66.407 21.434 53.098 12 37.609 12c-1.578 0-2.869 1.283-2.869 2.85v.798l-15.259 5.044a2.852 2.852 0 00-1.95 2.708v5.7H8.926c-1.578 0-2.869 1.282-2.869 2.85H6zm119.379 70.651a2.855 2.855 0 001.09-2.251V34.8h5.737v79.8H86.313c-.775 0-1.492.313-2.037.826l-4.904 4.874H77.02c16.148-24.025 44.602-17.499 45.864-17.185.86.199 1.75-.001 2.467-.542l.028.028zm-16.12-13.651V21.662l11.474 3.79v71.535c-8.118-1.054-28.425-1.767-43.283 13.68C82.326 99.58 93.455 91.8 106.39 91.8c1.578 0 2.868-1.282 2.868-2.85zm-34.42-39.9c0-16.33 12.621-29.782 28.684-31.236v68.371c-12.076.912-22.545 7.581-28.683 17.243V49.05zM40.42 17.814c16.063 1.453 28.684 14.905 28.684 31.236v54.406c-6.138-9.661-16.608-16.33-28.683-17.242v-68.4zm-17.21 7.638l11.474-3.79V88.95c0 1.567 1.29 2.85 2.868 2.85 12.937 0 24.066 7.78 28.942 18.867C51.635 95.22 31.327 95.933 23.21 96.987V25.452zM11.738 34.8h5.736v65.55c0 .883.402 1.71 1.09 2.251a2.83 2.83 0 002.467.514c.316-.086 29.572-6.897 45.864 17.185h-2.352l-4.904-4.874a2.85 2.85 0 00-2.037-.826H11.737V34.8z" fill="url(#paint0_linear_264_22)"/><defs><linearGradient id="paint0_linear_264_22" x1="46.84" y1="8.597" x2="74.738" y2="142.181" gradientUnits="userSpaceOnUse"><stop stop-color="#3E7DFD"/><stop offset=".681" stop-color="#132373"/><stop offset="1" stop-color="#090E53"/></linearGradient></defs></symbol><symbol fill="none" id="logo" viewBox="0 0 68 64"><title>logo</title><g clip-path="url(#clip0_264_27)"><path d="M67.939 11.196V3.645l-13.027 6.593a23.42 23.42 0 00-1.422-1.333C47.4 3.58 39.605.727 27.631.073c-9.366-.505-14.66 1.524-19.294 3.574V33.87L0 38.1v7.561l8.337-4.238v5.324L0 50.965v7.551l8.337-4.228V64H23.51V15.47c1.217-.325 2.445-.65 5.637-.65 6.681 0 18.165 7 18.063 22.183 0 7.646-2.184 13.502-5.325 17.671l11.42 9.319 1.358-1.56c3.928-4.636 8.638-13.9 8.638-25.972a60.165 60.165 0 00-.722-9.675l5.368-2.724V16.51l-7.051 3.57a29.496 29.496 0 00-1.919-4.34l8.962-4.544z" fill="url(#paint0_linear_264_27)"/></g><defs><linearGradient id="paint0_linear_264_27" x1="39.307" y1="20.537" x2="12.329" y2="72.474" gradientUnits="userSpaceOnUse"><stop stop-color="#35CBE6"/><stop offset="1" stop-color="#353CE6"/></linearGradient><clipPath id="clip0_264_27"><path fill="#fff" d="M0 0h67.939v64H0z"/></clipPath></defs></symbol><symbol fill="none" id="logo" viewBox="0 0 328 64"><title>logo</title><path d="M261.337 32.45c-1.52 2.372-3.039 4.743-4.559 7.112-.458.767-.96 1.507-1.502 2.217-1.602 1.96-3.775 1.971-5.349-.035-.947-1.212-1.707-2.564-2.544-3.864-1.214-1.885-2.424-3.775-4.021-5.57-.033.606-.096 1.21-.096 1.816v12.192c.032.65.004 1.3-.083 1.944a3.242 3.242 0 01-3.054 2.678 3.137 3.137 0 01-3.293-2.345 8.907 8.907 0 01-.27-2.4 5396.19 5396.19 0 010-24.141 8.554 8.554 0 01.207-2.17c.698-2.652 3.593-3.418 5.5-1.46a12.18 12.18 0 011.428 1.964c2.493 3.9 4.963 7.816 7.442 11.717.424.662.905 1.289 1.482 2.098.581-.849 1.044-1.487 1.467-2.15 2.577-4.038 5.117-8.095 7.724-12.117 1.493-2.314 2.758-2.953 4.516-2.431 1.607.466 2.265 1.71 2.267 4.356v24.628a9.7 9.7 0 01-.069 1.703 3.236 3.236 0 01-3.005 2.729c-1.551.107-2.886-.73-3.333-2.272a9.747 9.747 0 01-.293-2.64c-.028-4.461-.011-8.922-.011-13.382l-.556-.184M137.437 48.309c-3.86 3.069-7.907 3.414-12.07 1.57-4.246-1.88-6.279-5.474-6.798-9.96a14.29 14.29 0 011.284-8.068c3.563-7.324 12.582-8.03 16.919-4.323.236.17.482.326.737.466.322-.526.678-1.03 1.065-1.51 1.749-1.908 4.615-1.302 5.44 1.154.175.54.263 1.103.263 1.67.019 5.85.019 11.7 0 17.549a5.828 5.828 0 01-.233 1.675c-.786 2.564-3.77 3.233-5.581 1.254-.372-.405-.637-.909-1.033-1.487l.007.01zm.182-10.158c0-4-2.435-6.736-6.031-6.791-3.649-.059-6.374 2.836-6.388 6.779-.014 3.978 2.616 6.758 6.377 6.718 3.672-.03 6.046-2.66 6.046-6.706m55.237-10.08c1.468-2.344 2.677-3.046 4.296-2.564 1.683.492 2.351 1.674 2.355 4.29a3278.9 3278.9 0 010 16.596 14.04 14.04 0 01-.062 1.703c-.166 1.331-.88 2.263-2.168 2.664-1.365.424-2.577.119-3.523-.977a15.8 15.8 0 01-.996-1.468c-2.386 1.995-5.086 2.895-8.139 2.592-5.091-.506-8.742-3.496-10.233-8.401a14.761 14.761 0 01-.082-8.418c2.449-8.79 12.522-11.186 18.557-6.008l-.005-.009zm-12.389 10.17c.033 3.929 2.749 6.7 6.512 6.635 3.621-.066 6.082-2.832 6.047-6.789-.044-3.906-2.63-6.71-6.189-6.71-3.625 0-6.386 2.984-6.351 6.864M293.662 48.3c-4.228 3.262-8.591 3.539-12.949 1.148-4.626-2.535-6.242-6.924-6.047-11.939a15.094 15.094 0 011.509-5.837c3.103-6.365 10.991-8.234 16.782-4.149.254.18.512.35.77.527.395-.592.698-1.19 1.128-1.652.839-.879 1.902-1.259 3.105-.914 1.269.364 2.111 1.198 2.325 2.536.074.564.103 1.134.086 1.703v16.838c0 .324 0 .65-.014.976-.035 1.526-.674 2.666-2.156 3.2-1.439.522-2.774.06-3.837-1.3a13.043 13.043 0 01-.714-1.138h.012zm.2-10.022c.06-4.003-2.589-6.942-6.228-6.916-3.54.028-6.242 2.875-6.312 6.658-.072 3.929 2.588 6.818 6.298 6.84 3.672.02 6.186-2.632 6.242-6.582zm-80.493-10.622c2.114-1.51 4.302-2.287 6.732-2.289 4.828 0 8.605 3.072 8.952 7.868.342 4.859.191 9.757.125 14.637-.025 1.864-1.418 3.044-3.141 3.074-1.796.028-3.226-1.244-3.284-3.204-.098-3.333-.028-6.67-.051-10.007a14.89 14.89 0 00-.163-2.669c-.465-2.402-2.356-3.894-4.652-3.768-2.458.133-4.276 1.865-4.351 4.386-.097 3.335-.03 6.672-.042 10.01.03.73.004 1.462-.076 2.19-.312 1.99-1.666 3.144-3.473 3.043-1.807-.1-2.997-1.368-3.148-3.386-.031-.405-.014-.813-.014-1.221V29.965c-.037-.65-.007-1.3.09-1.944a3.211 3.211 0 015.31-1.79c.421.367.73.863 1.193 1.425m-51.954 3.859c-2.824 0-5.084.014-7.342 0a9.6 9.6 0 01-2.168-.184 2.629 2.629 0 01-2.116-2.622 2.817 2.817 0 012.028-2.729c.149-.057.306-.091.465-.102 5.186 0 10.377-.105 15.561.037 2.149.06 3.163 2.172 2.225 4.12a7.598 7.598 0 01-.983 1.384c-.863 1.077-1.745 2.14-2.617 3.207-2.204 2.706-4.408 5.413-6.609 8.12-.444.547-.844 1.132-1.577 2.117h6.098c1.297 0 2.6-.067 3.888.047 1.603.14 2.533 1.214 2.559 2.72.018 1.435-.745 2.419-2.24 2.745a9.166 9.166 0 01-1.928.156c-4.461.012-8.919 0-13.377 0h-.73c-1.27-.035-2.447-.307-3.07-1.568-.661-1.34-.233-2.5.672-3.584 3.15-3.82 6.29-7.647 9.419-11.482.502-.613.97-1.25 1.837-2.373M103.563 33.2l7.766 8.986c1.007 1.165 2.049 2.304 3.023 3.495 1.242 1.548 1.205 3.179-.016 4.356-1.286 1.24-3.147 1.226-4.54-.266-2.212-2.372-4.298-4.861-6.433-7.303-1.921-2.2-3.858-4.384-5.75-6.607-1.831-2.149-1.838-3.251.027-5.28 3.57-3.881 7.177-7.726 10.779-11.576a7.278 7.278 0 011.256-1.137 2.975 2.975 0 013.789.35 2.991 2.991 0 01.355 3.796 13.657 13.657 0 01-1.418 1.663 4109.895 4109.895 0 01-8.838 9.513m217.716-1.257c0-4.873.105-9.748-.044-14.619-.079-2.598 1.237-4.374 3.444-4.337 2.093.037 3.293 1.492 3.302 4.24.025 9.827.025 19.656 0 29.484a6.694 6.694 0 01-.267 1.913c-.481 1.557-1.754 2.412-3.302 2.319a3.234 3.234 0 01-3.047-2.68 10.563 10.563 0 01-.086-1.94V31.938m-13.85.032V17.845c-.021-.65 0-1.3.063-1.946.232-1.832 1.504-2.946 3.269-2.932 1.766.014 2.987 1.152 3.212 3.007a13.8 13.8 0 01.049 1.7v28.493c.029.73-.009 1.46-.114 2.183a3.264 3.264 0 01-1.157 1.845 3.251 3.251 0 01-5.213-1.92 12.855 12.855 0 01-.105-2.183c-.009-4.707-.009-9.415 0-14.122M94.852 34.378v11.931c.025.729-.023 1.458-.145 2.177-.304 1.433-1.495 2.365-2.953 2.442-1.526.08-2.949-.857-3.317-2.314a8.908 8.908 0 01-.17-2.174c-.009-8.197-.009-16.394 0-24.59-.023-.65.015-1.299.115-1.94.33-1.631 1.667-2.612 3.358-2.535 1.572.072 2.772 1.06 3.01 2.647.106.967.142 1.94.109 2.913v11.443" fill="#333"/><path fill-rule="evenodd" clip-rule="evenodd" d="M69.87 29.667c-.37-1.416-1-2.723-1.709-3.988a512.247 512.247 0 00-4.11-7.216 470.41 470.41 0 00-3.285-5.611 11.767 11.767 0 00-2.216-2.767c-1.456-1.304-3.127-1.779-5.03-1.257a8.085 8.085 0 00-2.602 1.33c-1.011.735-1.9 1.602-2.78 2.482-2.76 2.768-5.52 5.538-8.28 8.31-1.609 1.62-3.22 3.239-4.81 4.878-.97 1.002-1.826 2.098-2.413 3.383-.848 1.855-.867 3.718-.009 5.566.286.626.638 1.22 1.05 1.771a24.28 24.28 0 001.98 2.29 2919.59 2919.59 0 0012.547 12.614 34.78 34.78 0 001.907 1.755c.9.779 1.92 1.47 3.061 1.856 1.893.642 3.613.332 5.155-.947.288-.236.56-.49.816-.762a14.751 14.751 0 001.999-2.776 1950.46 1950.46 0 006.214-10.769 50.482 50.482 0 001.802-3.468 9.893 9.893 0 001.024-4.366c0-.78-.105-1.556-.312-2.308zm-51.627 2.462c-.01-2.481.035-4.547.038-5.183.011-2.404.07-4.8.08-7.204 0-1.025 0-2.027-.01-3.056-.008-.517-.024-1.052-.024-1.57a14.259 14.259 0 00-.32-3.285c-.219-.925-.602-1.82-1.27-2.522-.972-1.023-2.274-1.239-3.557-.656a5.637 5.637 0 00-1.837 1.4A15.694 15.694 0 009.41 12.77a4708.96 4708.96 0 00-7.09 12.295 23.667 23.667 0 00-1.717 3.61 9.285 9.285 0 00-.056 6.439 22.614 22.614 0 001.538 3.4c2.245 3.946 4.511 7.832 6.773 11.77a25.64 25.64 0 002.062 3.17c.446.587 1.075 1.265 1.824 1.694.995.569 2.023.735 3.086.218a3.59 3.59 0 001.603-1.639c.535-1.014.715-2.146.828-3.358.032-.527.04-.862.056-1.355.054-1.647.064-3.331.057-4.976-.012-2.497-.114-7.81-.132-11.909v-.001zm29.42 23.95c-.782-.95-1.6-1.872-2.457-2.752-4.143-4.173-8.29-8.332-12.443-12.475a48.527 48.527 0 00-2.312-2.153 8.496 8.496 0 00-2.764-1.661c-1.656-.587-3.216-.213-4.31 1.034a5.167 5.167 0 00-.98 1.755c-.37 1.064-.508 2.26-.524 3.376a370.52 370.52 0 00-.033 7.174c.009 1.76.062 3.52.119 5.28.027 1.042.172 2.077.433 3.086.546 2.062 1.726 3.597 3.717 4.44a8.68 8.68 0 002.062.56c1.214.176 2.44.26 3.668.252h8.504a32.333 32.333 0 003.98-.174c1.023-.122 2.008-.363 2.903-.9 1.452-.87 2.111-2.394 1.767-4.064a6.377 6.377 0 00-1.33-2.779zM22.056 22.69c.144.92.381 1.814.867 2.607.587.954 1.394 1.632 2.506 1.845.926.178 1.85 0 2.713-.385a10.626 10.626 0 002.852-1.945 84.987 84.987 0 002.432-2.352c4.138-4.15 8.27-8.302 12.399-12.453a17.412 17.412 0 002.062-2.401 6.797 6.797 0 001.045-2.18c.355-1.518.057-2.98-1.256-4.038a5.414 5.414 0 00-1.259-.724c-.95-.413-2.298-.52-3.172-.58C42.1.009 40.963.022 39.837.009c-1.169-.015-7.601-.01-9.763.03-.935.017-1.865.14-2.773.368-2.59.642-4.222 2.26-4.897 4.857-.39 1.503-.48 3.04-.5 4.583-.026 1.91-.063 3.859-.068 5.769 0 1.186.019 2.334.017 3.52-.001 1.186.012 2.378.204 3.556z" fill="url(#paint0_linear)"/><defs><linearGradient id="paint0_linear" x1="12.177" y1="9.206" x2="57.998" y2="54.933" gradientUnits="userSpaceOnUse"><stop stop-color="#FF8519"/><stop offset="1" stop-color="#FD238A"/></linearGradient></defs></symbol><symbol fill="none" id="phone" viewBox="0 0 17 25"><title>phone</title><rect x=".526" y=".5" width="14.975" height="24" rx="2.5" stroke="url(#paint0_linear)"/><path d="M5.192 22.084h5.591" stroke="url(#paint1_linear)" stroke-linecap="round"/><path d="M0 19.584h15.975" stroke="url(#paint2_linear)"/><path d="M.026 4.167h15.975" stroke="url(#paint3_linear)"/><defs><linearGradient id="paint0_linear" x1=".284" y1="15.896" x2="16.464" y2="13.036" gradientUnits="userSpaceOnUse"><stop stop-color="#FF742E"/><stop offset="1" stop-color="#FD238A"/></linearGradient><linearGradient id="paint1_linear" x1="5.282" y1="22.719" x2="7.004" y2="20.057" gradientUnits="userSpaceOnUse"><stop stop-color="#FF742E"/><stop offset="1" stop-color="#FD238A"/></linearGradient><linearGradient id="paint2_linear" x1=".258" y1="20.219" x2="1.071" y2="16.628" gradientUnits="userSpaceOnUse"><stop stop-color="#FF742E"/><stop offset="1" stop-color="#FD238A"/></linearGradient><linearGradient id="paint3_linear" x1=".284" y1="4.802" x2="1.097" y2="1.211" gradientUnits="userSpaceOnUse"><stop stop-color="#FF742E"/><stop offset="1" stop-color="#FD238A"/></linearGradient></defs></symbol><symbol fill="none" id="scheme" viewBox="0 0 30 27"><title>scheme</title><path d="M21.576 4.191L8.424 18.397a3 3 0 01-2.201.962H3a2 2 0 00-2 2V24a2 2 0 002 2h3.856a3 3 0 002.21-.972l13.017-14.185a3 3 0 012.21-.972H26a3 3 0 003-3v-.642a3 3 0 00-3-3h-2.223a3 3 0 00-2.2.962z" stroke="url(#paint0_linear)"/><path d="M11.7 7.024c0 1.042-.829 1.872-1.833 1.872-1.005 0-1.834-.83-1.834-1.872 0-1.041.829-1.872 1.834-1.872 1.004 0 1.833.83 1.833 1.872z" stroke="url(#paint1_linear)"/><path d="M7.5 16.512a.5.5 0 101 0h-1zm3.733-3.795a.5.5 0 001 0h-1zM8.5 16.512v-5.167h-1v5.167h1zm.5-5.667h1.733v-1H9v1zm2.233.5v1.372h1v-1.372h-1zm-.5-.5a.5.5 0 01.5.5h1a1.5 1.5 0 00-1.5-1.5v1zm-2.233.5a.5.5 0 01.5-.5v-1a1.5 1.5 0 00-1.5 1.5h1z" fill="url(#paint2_linear)"/><path d="M14.575 5.032L18.708 1m0 0h-2.8m2.8 0v2.846" stroke="url(#paint3_linear)" stroke-linecap="round"/><path d="M25.175 15.516l-9.8 9.963m0 0h2.8m-2.8 0v-2.847" stroke="url(#paint4_linear)" stroke-linecap="round"/><defs><linearGradient id="paint0_linear" x1="1.452" y1="17.708" x2="27.665" y2="8.791" gradientUnits="userSpaceOnUse"><stop stop-color="#FF742E"/><stop offset="1" stop-color="#FD238A"/></linearGradient><linearGradient id="paint1_linear" x1="7.609" y1="7.669" x2="12.147" y2="6.434" gradientUnits="userSpaceOnUse"><stop stop-color="#FF742E"/><stop offset="1" stop-color="#FD238A"/></linearGradient><linearGradient id="paint2_linear" x1="8.06" y1="14.266" x2="11.853" y2="13.631" gradientUnits="userSpaceOnUse"><stop stop-color="#FF742E"/><stop offset="1" stop-color="#FD238A"/></linearGradient><linearGradient id="paint3_linear" x1="14.642" y1="3.564" x2="18.638" y2="2.431" gradientUnits="userSpaceOnUse"><stop stop-color="#FF742E"/><stop offset="1" stop-color="#FD238A"/></linearGradient><linearGradient id="paint4_linear" x1="25.017" y1="19.144" x2="15.486" y2="21.738" gradientUnits="userSpaceOnUse"><stop stop-color="#FF742E"/><stop offset="1" stop-color="#FD238A"/></linearGradient></defs></symbol><symbol fill="none" id="search" viewBox="0 0 27 27"><title>search</title><path d="M18.434 18.5L26 26" stroke="url(#paint0_linear)" stroke-width="2" stroke-linecap="round"/><path d="M11 21c5.523 0 10-4.477 10-10S16.523 1 11 1 1 5.477 1 11s4.477 10 10 10z" stroke="url(#paint1_linear)" stroke-width="2"/><defs><linearGradient id="paint0_linear" x1="18.556" y1="23.269" x2="25.888" y2="21.223" gradientUnits="userSpaceOnUse"><stop stop-color="#FF742E"/><stop offset="1" stop-color="#FD238A"/></linearGradient><linearGradient id="paint1_linear" x1="1.323" y1="13.717" x2="20.728" y2="8.349" gradientUnits="userSpaceOnUse"><stop stop-color="#FF742E"/><stop offset="1" stop-color="#FD238A"/></linearGradient></defs></symbol><symbol fill="none" id="time" viewBox="0 0 25 25"><title>time</title><circle cx="12.5" cy="12.5" r="12" stroke="url(#paint0_linear)"/><path d="M12 5v8.089L18 18" stroke="url(#paint1_linear)" stroke-linecap="round"/><defs><linearGradient id="paint0_linear" x1=".404" y1="15.896" x2="24.66" y2="9.186" gradientUnits="userSpaceOnUse"><stop stop-color="#FF742E"/><stop offset="1" stop-color="#FD238A"/></linearGradient><linearGradient id="paint1_linear" x1="12.096" y1="13.266" x2="18.263" y2="12.479" gradientUnits="userSpaceOnUse"><stop stop-color="#FF742E"/><stop offset="1" stop-color="#FD238A"/></linearGradient></defs></symbol><symbol fill="none" id="trangle" viewBox="0 0 770 775"><title>trangle</title><path opacity=".44" d="M57.948 424.068C34.168 327.75 16.446 255.935 9.329 200.532c-7.119-55.416-3.461-93.35 14.473-122.493a166.46 166.46 0 0159.976-57.747C113.564 3.488 151.57 1.303 206.61 10.577c55.029 9.272 126.029 29.788 221.255 57.316 95.225 27.528 166.221 48.06 217.713 69.582 51.503 21.526 82.491 43.655 98.734 73.766a166.613 166.613 0 0119.963 80.858c-.361 34.224-17.483 68.266-53.037 111.344-35.546 43.07-88.809 94.365-160.255 163.155S426.262 686.671 381.887 720.552c-44.386 33.889-79.031 49.689-113.204 48.72a166.184 166.184 0 01-79.934-23.107c-29.426-17.417-50.314-49.272-69.802-101.626-19.483-52.341-37.22-124.153-61-220.471z" stroke="url(#paint0_linear_207_11)" stroke-width="10"/><defs><linearGradient id="paint0_linear_207_11" x1="350" y1="155.5" x2="631.834" y2="542.621" gradientUnits="userSpaceOnUse"><stop stop-color="#3E7DFD"/><stop offset="1" stop-color="#0A0F54" stop-opacity=".2"/></linearGradient></defs></symbol><symbol fill="none" id="tw" viewBox="0 0 40 40"><title>tw</title><path d="M19.401 16.756l.042.692-.7-.084c-2.546-.325-4.77-1.427-6.659-3.277l-.923-.918-.238.678c-.503 1.511-.182 3.107.868 4.18.56.593.433.678-.532.325-.336-.113-.63-.198-.657-.155-.098.099.237 1.384.503 1.892.364.707 1.105 1.399 1.917 1.808l.685.325-.811.014c-.784 0-.812.014-.728.31.28.919 1.385 1.893 2.616 2.317l.868.297-.756.452a7.876 7.876 0 01-3.749 1.045c-.63.014-1.147.07-1.147.113 0 .141 1.707.932 2.7 1.243 2.98.918 6.52.522 9.177-1.046 1.889-1.115 3.777-3.333 4.659-5.48.475-1.143.951-3.234.951-4.236 0-.65.042-.735.825-1.512.462-.452.896-.946.98-1.087.14-.268.125-.268-.588-.028-1.189.423-1.357.367-.77-.269.434-.452.952-1.27.952-1.51 0-.043-.21.027-.448.154-.252.142-.811.353-1.23.48l-.756.24-.686-.465c-.377-.255-.91-.537-1.189-.622-.713-.197-1.805-.17-2.448.057-1.749.635-2.854 2.274-2.728 4.067z" fill="#fff"/><rect x=".5" y=".5" width="39" height="39" rx="11.5" stroke="#fff"/></symbol><symbol fill="none" id="way" viewBox="0 0 25 27"><title>way</title><path d="M23.573 1.188l-22.14 9.766a.2.2 0 00.006.368l9.446 3.812a.2.2 0 01.112.115l3.812 10.24a.2.2 0 00.376-.003L23.842 1.44a.2.2 0 00-.269-.25z" stroke="url(#paint0_linear)"/><defs><linearGradient id="paint0_linear" x1="1.371" y1="16.896" x2="23.933" y2="11.154" gradientUnits="userSpaceOnUse"><stop stop-color="#FF742E"/><stop offset="1" stop-color="#FD238A"/></linearGradient></defs></symbol></svg>