<svg width="770" height="775" viewBox="0 0 770 775" fill="none" xmlns="http://www.w3.org/2000/svg">
<path opacity="0.44" d="M57.9476 424.068C34.1683 327.75 16.4463 255.935 9.32917 200.532C2.21043 145.116 5.86803 107.182 23.8015 78.0386C38.5846 54.0147 59.2225 34.1442 83.7777 20.2917C113.564 3.48816 151.57 1.30339 206.61 10.577C261.639 19.8486 332.639 40.3653 427.865 67.8932C523.09 95.4211 594.086 115.953 645.578 137.475C697.081 159.001 728.069 181.13 744.312 211.241C757.703 236.064 764.572 263.887 764.275 292.099C763.914 326.323 746.792 360.365 711.238 403.443C675.692 446.513 622.429 497.808 550.983 566.598C479.537 635.388 426.262 686.671 381.887 720.552C337.501 754.441 302.856 770.241 268.683 769.272C240.512 768.473 213.006 760.522 188.749 746.165C159.323 728.748 138.435 696.893 118.947 644.539C99.4642 592.198 81.7269 520.386 57.9476 424.068Z" stroke="url(#paint0_linear_207_11)" stroke-width="10"/>
<defs>
<linearGradient id="paint0_linear_207_11" x1="350" y1="155.5" x2="631.834" y2="542.621" gradientUnits="userSpaceOnUse">
<stop stop-color="#3E7DFD"/>
<stop offset="1" stop-color="#0A0F54" stop-opacity="0.2"/>
</linearGradient>
</defs>
</svg>
