<svg width="40" height="40" viewBox="0 0 40 40" fill="none" xmlns="http://www.w3.org/2000/svg">
<path d="M19.401 16.7563L19.443 17.4483L18.7435 17.3636C16.1974 17.0387 13.973 15.9371 12.0844 14.0869L11.1611 13.1689L10.9233 13.8468C10.4197 15.358 10.7414 16.954 11.7907 18.0274C12.3503 18.6205 12.2243 18.7053 11.2591 18.3522C10.9233 18.2392 10.6295 18.1545 10.6016 18.1968C10.5036 18.2957 10.8394 19.5809 11.1052 20.0894C11.4689 20.7955 12.2104 21.4876 13.0218 21.8972L13.7072 22.222L12.8958 22.2361C12.1124 22.2361 12.0844 22.2502 12.1684 22.5468C12.4482 23.4649 13.5534 24.4394 14.7844 24.8631L15.6518 25.1597L14.8964 25.6116C13.7772 26.2613 12.4622 26.6285 11.1471 26.6567C10.5176 26.6709 10 26.7273 10 26.7697C10 26.911 11.7067 27.7019 12.7 28.0126C15.6798 28.9306 19.2191 28.5351 21.8772 26.9674C23.7658 25.8517 25.6543 23.6343 26.5357 21.4876C27.0113 20.3436 27.487 18.2533 27.487 17.2506C27.487 16.6009 27.529 16.5162 28.3124 15.7394C28.774 15.2874 29.2077 14.7931 29.2916 14.6519C29.4315 14.3835 29.4175 14.3835 28.7041 14.6236C27.515 15.0473 27.3471 14.9908 27.9346 14.3553C28.3683 13.9033 28.8859 13.0842 28.8859 12.8441C28.8859 12.8017 28.6761 12.8723 28.4383 12.9994C28.1865 13.1407 27.6269 13.3525 27.2072 13.4796L26.4518 13.7197L25.7663 13.2537C25.3885 12.9994 24.8569 12.717 24.5771 12.6322C23.8637 12.4345 22.7725 12.4627 22.129 12.6887C20.3803 13.3243 19.2751 14.9626 19.401 16.7563Z" fill="white"/>
<rect x="0.5" y="0.5" width="39" height="39" rx="11.5" stroke="white"/>
</svg>
