<svg width="41" height="40" viewBox="0 0 41 40" fill="none" xmlns="http://www.w3.org/2000/svg">
<rect x="1" y="0.5" width="39" height="39" rx="11.5" stroke="#313330"/>
<path d="M31.9985 13.6936C31.7225 12.6333 30.9092 11.7984 29.8765 11.515C28.005 11 20.5 11 20.5 11C20.5 11 12.995 11 11.1234 11.515C10.0907 11.7984 9.27741 12.6333 9.00141 13.6936C8.5 15.6153 8.5 19.625 8.5 19.625C8.5 19.625 8.5 23.6345 9.00141 25.5564C9.27741 26.6167 10.0907 27.4516 11.1234 27.7351C12.995 28.25 20.5 28.25 20.5 28.25C20.5 28.25 28.005 28.25 29.8765 27.7351C30.9092 27.4516 31.7225 26.6167 31.9985 25.5564C32.5 23.6345 32.5 19.625 32.5 19.625C32.5 19.625 32.5 15.6153 31.9985 13.6936Z" fill="#313330"/>
<path d="M18.9336 23.7188V16.2188L24.9336 19.9689L18.9336 23.7188Z" fill="white"/>
</svg>
